<svg xmlns="http://www.w3.org/2000/svg" xmlns:xlink="http://www.w3.org/1999/xlink" width="22" height="22" viewBox="0 0 22 22">
  <defs>
    <clipPath id="clip-path">
      <rect id="長方形_19" data-name="長方形 19" width="22" height="22" transform="translate(-2325 -4969)" fill="#fff"/>
    </clipPath>
  </defs>
  <g id="cat_icon08_active" transform="translate(2325 4969)" clip-path="url(#clip-path)">
    <g id="Group_37" data-name="Group 37" transform="translate(-2324 -4968)">
      <path id="Fill_1" data-name="Fill 1" d="M1.032.528a.522.522,0,0,1-.516.528A.522.522,0,0,1,0,.528.522.522,0,0,1,.516,0a.522.522,0,0,1,.516.528" transform="translate(15.094 9.196)" fill="#fec32d"/>
      <path id="Stroke_3" data-name="Stroke 3" d="M18.236,6.242,16.459,5.71a6.261,6.261,0,0,0-2.4-3.145A4.872,4.872,0,0,1,14.86.832.47.47,0,0,0,14.6.087a3.928,3.928,0,0,0-3.672,1.064A10.717,10.717,0,0,0,8.351.838C3.739.838,0,3.692,0,7.213a5.875,5.875,0,0,0,2.9,4.82L4.09,15.3H5.761l.916-1.838a10.986,10.986,0,0,0,3.348,0l.916,1.838h1.672l1.194-3.265a6.877,6.877,0,0,0,2.137-2.176l2.293-.616Z" transform="translate(1.764 4.702)" fill="none" stroke="#fec32d" stroke-linecap="round" stroke-linejoin="round" stroke-miterlimit="10" stroke-width="0.61"/>
      <path id="Stroke_5" data-name="Stroke 5" d="M0,.012A10.209,10.209,0,0,0,1.044.23" transform="translate(7.396 17.932)" fill="none" stroke="#fec32d" stroke-linecap="round" stroke-linejoin="round" stroke-miterlimit="10" stroke-width="0.656"/>
      <path id="Stroke_7" data-name="Stroke 7" d="M1.577,1.236s-.057,0-.062,0a.356.356,0,0,0-.058.033.3.3,0,0,0-.042.063.324.324,0,0,0-.014.085.358.358,0,0,0,.021.1.389.389,0,0,0,.059.093.434.434,0,0,0,.1.077.474.474,0,0,0,.129.046.534.534,0,0,0,.152,0,.584.584,0,0,0,.16-.047.655.655,0,0,0,.153-.1A.741.741,0,0,0,2.3,1.434a.808.808,0,0,0,.088-.2A.89.89,0,0,0,2.42,1,.953.953,0,0,0,2.386.756,1.015,1.015,0,0,0,2.281.513,1.047,1.047,0,0,0,2.105.3a1.088,1.088,0,0,0-.24-.17,1.142,1.142,0,0,0-.291-.1A1.194,1.194,0,0,0,1.252,0,1.261,1.261,0,0,0,.92.076,1.333,1.333,0,0,0,.6.245,1.432,1.432,0,0,0,.333.5a1.514,1.514,0,0,0-.2.338,1.591,1.591,0,0,0-.113.4,1.674,1.674,0,0,0-.006.43A1.728,1.728,0,0,0,.12,2.1a1.767,1.767,0,0,0,.224.4,1.8,1.8,0,0,0,.752.585,1.858,1.858,0,0,0,.485.128A1.92,1.92,0,0,0,2.1,3.209a1.982,1.982,0,0,0,.512-.15,2.077,2.077,0,0,0,.47-.291,2.177,2.177,0,0,0,.2-.186" transform="translate(0 5.666)" fill="none" stroke="#fec32d" stroke-linecap="round" stroke-linejoin="round" stroke-miterlimit="10" stroke-width="0.61"/>
      <path id="Stroke_9" data-name="Stroke 9" d="M0,.789A8.908,8.908,0,0,0,1.492,0" transform="translate(14.078 16.735)" fill="none" stroke="#fec32d" stroke-linecap="round" stroke-linejoin="round" stroke-miterlimit="10" stroke-width="0.656"/>
      <path id="Stroke_11" data-name="Stroke 11" d="M1.183.386A8.471,8.471,0,0,0,0,0" transform="translate(12.692 5.853)" fill="none" stroke="#fec32d" stroke-linecap="round" stroke-linejoin="round" stroke-miterlimit="10" stroke-width="0.61"/>
      <path id="Fill_13" data-name="Fill 13" d="M6.771,3.466A3.426,3.426,0,0,1,3.385,6.931,3.426,3.426,0,0,1,0,3.466,3.426,3.426,0,0,1,3.385,0,3.426,3.426,0,0,1,6.771,3.466" transform="translate(4.702)" fill="#fff"/>
      <path id="Stroke_15" data-name="Stroke 15" d="M6.771,3.466A3.426,3.426,0,0,1,3.385,6.931,3.426,3.426,0,0,1,0,3.466,3.426,3.426,0,0,1,3.385,0,3.426,3.426,0,0,1,6.771,3.466Z" transform="translate(4.702)" fill="none" stroke="#fff" stroke-linecap="round" stroke-linejoin="round" stroke-miterlimit="10" stroke-width="1.829"/>
      <path id="Fill_17" data-name="Fill 17" d="M6.771,3.466A3.426,3.426,0,0,1,3.385,6.931,3.426,3.426,0,0,1,0,3.466,3.426,3.426,0,0,1,3.385,0,3.426,3.426,0,0,1,6.771,3.466" transform="translate(4.702)" fill="#fff"/>
      <path id="Stroke_19" data-name="Stroke 19" d="M6.771,3.466A3.426,3.426,0,0,1,3.385,6.931,3.426,3.426,0,0,1,0,3.466,3.426,3.426,0,0,1,3.385,0,3.426,3.426,0,0,1,6.771,3.466Z" transform="translate(4.702)" fill="none" stroke="#fec32d" stroke-linecap="round" stroke-linejoin="round" stroke-miterlimit="10" stroke-width="0.61"/>
      <g id="Group_24" data-name="Group 24" transform="translate(7.094 1.966)">
        <path id="Fill_21" data-name="Fill 21" d="M1.988.613C1.662-.277.192-.171.181.755c0,.414.469.605.866.669,1.445.234,1.046,1.625,0,1.573A1.049,1.049,0,0,1,0,2.276" fill="#fff"/>
        <path id="Stroke_23" data-name="Stroke 23" d="M1.988.613C1.662-.277.192-.171.181.755c0,.414.469.605.866.669,1.445.234,1.046,1.625,0,1.573A1.049,1.049,0,0,1,0,2.276" fill="none" stroke="#fec32d" stroke-linecap="round" stroke-linejoin="round" stroke-miterlimit="10" stroke-width="0.61"/>
      </g>
      <g id="Group_28" data-name="Group 28" transform="translate(8.04 1.22)">
        <path id="Fill_25" data-name="Fill 25" d="M.236,0V1" fill="#fff"/>
        <path id="Stroke_27" data-name="Stroke 27" d="M.236,0V1" fill="none" stroke="#fec32d" stroke-linecap="round" stroke-linejoin="round" stroke-miterlimit="10" stroke-width="0.61"/>
      </g>
      <g id="Group_32" data-name="Group 32" transform="translate(8.04 4.965)">
        <path id="Fill_29" data-name="Fill 29" d="M.236,0V1" fill="#fff"/>
        <path id="Stroke_31" data-name="Stroke 31" d="M.236,0V1" fill="none" stroke="#fec32d" stroke-linecap="round" stroke-linejoin="round" stroke-miterlimit="10" stroke-width="0.61"/>
      </g>
      <path id="Stroke_33" data-name="Stroke 33" d="M5.654.094A8.932,8.932,0,0,0,4.359,0,8.2,8.2,0,0,0,0,1.2" transform="translate(6.061 7.162)" fill="none" stroke="#fff" stroke-linecap="round" stroke-linejoin="round" stroke-miterlimit="10" stroke-width="1.829"/>
      <path id="Stroke_35" data-name="Stroke 35" d="M5.654.094A8.932,8.932,0,0,0,4.359,0,8.2,8.2,0,0,0,0,1.2" transform="translate(6.061 7.162)" fill="none" stroke="#fec32d" stroke-linecap="round" stroke-linejoin="round" stroke-miterlimit="10" stroke-width="0.61"/>
    </g>
  </g>
</svg>
