<svg xmlns="http://www.w3.org/2000/svg" xmlns:xlink="http://www.w3.org/1999/xlink" width="22" height="22" viewBox="0 0 22 22">
  <defs>
    <clipPath id="clip-path">
      <rect id="長方形_7" data-name="長方形 7" width="22" height="22" transform="translate(-2426 -4896)" fill="#fff"/>
    </clipPath>
  </defs>
  <g id="cat_icon04" transform="translate(2426 4896)" clip-path="url(#clip-path)">
    <g id="Group_26" data-name="Group 26" transform="translate(-2425 -4894)">
      <path id="Stroke_1" data-name="Stroke 1" d="M0,8.247H16.424V0H0Z" transform="translate(3.576 0)" fill="none" stroke="#555" stroke-linecap="round" stroke-linejoin="round" stroke-miterlimit="10" stroke-width="0.567"/>
      <path id="Fill_3" data-name="Fill 3" d="M1.361,2.8A1.382,1.382,0,0,1,0,1.4,1.382,1.382,0,0,1,1.361,0,1.382,1.382,0,0,1,2.722,1.4,1.382,1.382,0,0,1,1.361,2.8" transform="translate(2.215)" fill="#fff"/>
      <path id="Stroke_4" data-name="Stroke 4" d="M1.361,2.8A1.382,1.382,0,0,1,0,1.4,1.382,1.382,0,0,1,1.361,0,1.382,1.382,0,0,1,2.722,1.4,1.382,1.382,0,0,1,1.361,2.8Z" transform="translate(2.215)" fill="none" stroke="#555" stroke-linecap="round" stroke-linejoin="round" stroke-miterlimit="10" stroke-width="0.5"/>
      <path id="Fill_5" data-name="Fill 5" d="M5.843,1.364,5.026,12.638a.436.436,0,0,1-.417.409H2.543a.436.436,0,0,1-.417-.409L1.714,6.91,1.643,6.9C1.1,6.819.351,6.373.307,5.864L0,1.636c0-.035,0-.059,0-.073A1.532,1.532,0,0,1,1.44,0h9.419A1.346,1.346,0,0,1,9.531,1.364Z" transform="translate(0 3.953)" fill="#fff"/>
      <path id="Stroke_6" data-name="Stroke 6" d="M5.843,1.364,5.026,12.638a.436.436,0,0,1-.417.409H2.543a.436.436,0,0,1-.417-.409L1.714,6.91,1.643,6.9C1.1,6.819.351,6.373.307,5.864L0,1.636c0-.035,0-.059,0-.073A1.532,1.532,0,0,1,1.44,0h9.419A1.346,1.346,0,0,1,9.531,1.364H5.843" transform="translate(0 3.953)" fill="none" stroke="#555" stroke-linecap="round" stroke-linejoin="round" stroke-miterlimit="10" stroke-width="1"/>
      <path id="Fill_8" data-name="Fill 8" d="M5.843,1.364,5.026,12.638a.436.436,0,0,1-.417.409H2.543a.436.436,0,0,1-.417-.409L1.714,6.91,1.643,6.9C1.1,6.819.351,6.373.307,5.864L0,1.636c0-.035,0-.059,0-.073A1.532,1.532,0,0,1,1.44,0h9.419A1.346,1.346,0,0,1,9.531,1.364Z" transform="translate(0 3.953)" fill="#fff"/>
      <path id="Stroke_9" data-name="Stroke 9" d="M5.026,12.638a.436.436,0,0,1-.417.409H2.543a.436.436,0,0,1-.417-.409L1.714,6.91,1.643,6.9C1.1,6.819.351,6.373.308,5.864L0,1.636c0-.035,0-.059,0-.073A1.532,1.532,0,0,1,1.44,0h9.419A1.346,1.346,0,0,1,9.532,1.364H5.843Z" transform="translate(0 3.953)" fill="none"/>
      <path id="Stroke_10" data-name="Stroke 10" d="M.11,0V6.359" transform="translate(3.465 10.46)" fill="none" stroke="#555" stroke-linecap="round" stroke-linejoin="round" stroke-miterlimit="10" stroke-width="0.567"/>
      <path id="Stroke_11" data-name="Stroke 11" d="M.344,4.777,0,0" transform="translate(1.37 6.085)" fill="none" stroke="#555" stroke-linecap="round" stroke-linejoin="round" stroke-miterlimit="10" stroke-width="0.567"/>
      <path id="Stroke_12" data-name="Stroke 12" d="M1.322,2.717A1.342,1.342,0,0,1,0,1.359,1.342,1.342,0,0,1,1.322,0,1.342,1.342,0,0,1,2.644,1.359,1.342,1.342,0,0,1,1.322,2.717Z" transform="translate(8.901 9.703)" fill="none" stroke="#555" stroke-linecap="round" stroke-linejoin="round" stroke-miterlimit="10" stroke-width="0.567"/>
      <path id="Stroke_13" data-name="Stroke 13" d="M6.52,3.456V1.56A1.539,1.539,0,0,0,5,0H1.518A1.539,1.539,0,0,0,0,1.56v1.9" transform="translate(6.96 13.544)" fill="none" stroke="#555" stroke-linecap="square" stroke-miterlimit="10" stroke-width="0.567"/>
      <path id="Stroke_14" data-name="Stroke 14" d="M.11,0V.924" transform="translate(8.22 16.076)" fill="none" stroke="#555" stroke-linecap="square" stroke-linejoin="bevel" stroke-miterlimit="10" stroke-width="0.567"/>
      <path id="Stroke_15" data-name="Stroke 15" d="M.11,0V.924" transform="translate(11.996 16.076)" fill="none" stroke="#555" stroke-linecap="square" stroke-linejoin="bevel" stroke-miterlimit="10" stroke-width="0.567"/>
      <path id="Stroke_16" data-name="Stroke 16" d="M.11,0V1.137" transform="translate(8.22 15.616)" fill="none" stroke="#555" stroke-linecap="round" stroke-linejoin="round" stroke-miterlimit="10" stroke-width="0.567"/>
      <path id="Stroke_17" data-name="Stroke 17" d="M.11,0V1.137" transform="translate(11.996 15.616)" fill="none" stroke="#555" stroke-linecap="round" stroke-linejoin="round" stroke-miterlimit="10" stroke-width="0.567"/>
      <path id="Stroke_18" data-name="Stroke 18" d="M1.322,2.717A1.342,1.342,0,0,1,0,1.359,1.342,1.342,0,0,1,1.322,0,1.342,1.342,0,0,1,2.644,1.359,1.342,1.342,0,0,1,1.322,2.717Z" transform="translate(15.421 9.703)" fill="none" stroke="#555" stroke-linecap="round" stroke-linejoin="round" stroke-miterlimit="10" stroke-width="0.567"/>
      <path id="Stroke_19" data-name="Stroke 19" d="M6.52,3.456V1.56A1.539,1.539,0,0,0,5,0H1.518A1.539,1.539,0,0,0,0,1.56v1.9" transform="translate(13.48 13.544)" fill="none" stroke="#555" stroke-linecap="square" stroke-miterlimit="10" stroke-width="0.567"/>
      <path id="Stroke_20" data-name="Stroke 20" d="M.11,0V.924" transform="translate(14.74 16.076)" fill="none" stroke="#555" stroke-linecap="square" stroke-linejoin="bevel" stroke-miterlimit="10" stroke-width="0.567"/>
      <path id="Stroke_21" data-name="Stroke 21" d="M.11,0V.924" transform="translate(18.516 16.076)" fill="none" stroke="#555" stroke-linecap="square" stroke-linejoin="bevel" stroke-miterlimit="10" stroke-width="0.567"/>
      <path id="Stroke_22" data-name="Stroke 22" d="M.11,0V1.137" transform="translate(14.74 15.616)" fill="none" stroke="#555" stroke-linecap="round" stroke-linejoin="round" stroke-miterlimit="10" stroke-width="0.567"/>
      <path id="Stroke_23" data-name="Stroke 23" d="M.11,0V1.137" transform="translate(18.516 15.616)" fill="none" stroke="#555" stroke-linecap="round" stroke-linejoin="round" stroke-miterlimit="10" stroke-width="0.567"/>
      <path id="Stroke_24" data-name="Stroke 24" d="M6.723,0,3.594,3.217,2.37,1.96,0,4.395" transform="translate(11.172 2.163)" fill="none" stroke="#555" stroke-linecap="round" stroke-linejoin="round" stroke-miterlimit="10" stroke-width="0.567"/>
      <path id="Stroke_25" data-name="Stroke 25" d="M0,.29,1.88,0,1.6,1.932" transform="translate(16.015 2.163)" fill="none" stroke="#555" stroke-linecap="round" stroke-linejoin="round" stroke-miterlimit="10" stroke-width="0.567"/>
    </g>
  </g>
</svg>
