<svg xmlns="http://www.w3.org/2000/svg" xmlns:xlink="http://www.w3.org/1999/xlink" width="22" height="22" viewBox="0 0 22 22">
  <defs>
    <clipPath id="clip-path">
      <rect id="長方形_10" data-name="長方形 10" width="22" height="22" transform="translate(-2289 -4896)" fill="#fff"/>
    </clipPath>
  </defs>
  <g id="cat_icon07" transform="translate(2289 4896)" clip-path="url(#clip-path)">
    <g id="Group_27" data-name="Group 27" transform="translate(-2287 -4894)">
      <path id="Stroke_1" data-name="Stroke 1" d="M10.972,14.86H1.83A1.838,1.838,0,0,1,0,13.024V1.836A1.838,1.838,0,0,1,1.83,0H2.877" transform="translate(0 1.331)" fill="none" stroke="#555" stroke-linecap="round" stroke-linejoin="round" stroke-miterlimit="10" stroke-width="0.5"/>
      <path id="Stroke_3" data-name="Stroke 3" d="M0,0H1.238a1.838,1.838,0,0,1,1.83,1.836v8.187" transform="translate(13.033 1.331)" fill="none" stroke="#555" stroke-linecap="round" stroke-linejoin="round" stroke-miterlimit="10" stroke-width="0.5"/>
      <path id="Stroke_5" data-name="Stroke 5" d="M0,.05H5.854" transform="translate(5.118 1.293)" fill="none" stroke="#555" stroke-linecap="round" stroke-linejoin="round" stroke-miterlimit="10" stroke-width="0.5"/>
      <path id="Stroke_7" data-name="Stroke 7" d="M0,.05H16.1" transform="translate(0 5.298)" fill="none" stroke="#555" stroke-linecap="round" stroke-linejoin="round" stroke-miterlimit="10" stroke-width="0.5"/>
      <path id="Stroke_9" data-name="Stroke 9" d="M0,2.623V.426c0-.569,2.061-.569,2.061,0v2.2C2.061,3.192,0,3.192,0,2.623Z" transform="translate(3.057)" fill="none" stroke="#555" stroke-linecap="round" stroke-linejoin="round" stroke-miterlimit="10" stroke-width="0.5"/>
      <path id="Stroke_11" data-name="Stroke 11" d="M0,2.623V.426c0-.569,2.061-.569,2.061,0v2.2C2.061,3.192,0,3.192,0,2.623Z" transform="translate(10.972)" fill="none" stroke="#555" stroke-linecap="round" stroke-linejoin="round" stroke-miterlimit="10" stroke-width="0.5"/>
      <path id="Fill_13" data-name="Fill 13" d="M1.9,2.52H.61A.611.611,0,0,1,0,1.909V.612A.612.612,0,0,1,.61,0H1.9a.612.612,0,0,1,.61.612v1.3A.611.611,0,0,1,1.9,2.52ZM.61.612v1.3H1.9V.612Z" transform="translate(2.828 7.369)" fill="#555" stroke="#fff" stroke-miterlimit="10" stroke-width="0.2"/>
      <path id="Fill_15" data-name="Fill 15" d="M1.9,2.52H.61A.611.611,0,0,1,0,1.909V.612A.612.612,0,0,1,.61,0H1.9a.612.612,0,0,1,.61.612v1.3A.611.611,0,0,1,1.9,2.52ZM.61.612v1.3H1.9V.612Z" transform="translate(6.72 7.369)" fill="#555" stroke="#fff" stroke-miterlimit="10" stroke-width="0.2"/>
      <path id="Fill_17" data-name="Fill 17" d="M1.9,2.52H.61A.611.611,0,0,1,0,1.909V.612A.612.612,0,0,1,.61,0H1.9a.612.612,0,0,1,.61.612v1.3A.611.611,0,0,1,1.9,2.52ZM.61.612v1.3H1.9V.612Z" transform="translate(2.828 11.273)" fill="#555" stroke="#fff" stroke-miterlimit="10" stroke-width="0.2"/>
      <path id="Fill_19" data-name="Fill 19" d="M1.9,2.52H.61A.611.611,0,0,1,0,1.909V.612A.612.612,0,0,1,.61,0H1.9a.612.612,0,0,1,.61.612v1.3A.611.611,0,0,1,1.9,2.52ZM.61.612v1.3H1.9V.612Z" transform="translate(6.72 11.273)" fill="#555" stroke="#fff" stroke-miterlimit="10" stroke-width="0.2"/>
      <path id="Fill_21" data-name="Fill 21" d="M1.9,2.52H.61A.611.611,0,0,1,0,1.909V.612A.612.612,0,0,1,.61,0H1.9a.612.612,0,0,1,.61.612v1.3A.611.611,0,0,1,1.9,2.52ZM.61.612v1.3H1.9V.612Z" transform="translate(10.444 7.369)" fill="#555" stroke="#fff" stroke-miterlimit="10" stroke-width="0.2"/>
      <path id="Stroke_23" data-name="Stroke 23" d="M6.866,3.444A3.433,3.433,0,1,1,3.433,0,3.439,3.439,0,0,1,6.866,3.444Z" transform="translate(11.134 11.112)" fill="none" stroke="#555" stroke-linecap="round" stroke-linejoin="round" stroke-miterlimit="10" stroke-width="0.5"/>
      <path id="Stroke_25" data-name="Stroke 25" d="M0,0V2.35L1.194,3.428" transform="translate(14.567 12.334)" fill="none" stroke="#231916" stroke-linecap="round" stroke-linejoin="round" stroke-miterlimit="10" stroke-width="0.5"/>
    </g>
  </g>
</svg>
