<svg xmlns="http://www.w3.org/2000/svg" xmlns:xlink="http://www.w3.org/1999/xlink" width="22" height="22" viewBox="0 0 22 22">
  <defs>
    <clipPath id="clip-path">
      <rect id="長方形_4" data-name="長方形 4" width="22" height="22" transform="translate(-2430 -4970)" fill="#fff"/>
    </clipPath>
  </defs>
  <g id="cat_icon01" transform="translate(2430 4970)" clip-path="url(#clip-path)">
    <g id="Group_47" data-name="Group 47" transform="translate(-2427 -4969)">
      <path id="Fill_1" data-name="Fill 1" d="M0,1.767c0,.006,0,.011,0,.017L.306,6A1.645,1.645,0,0,0,1.643,7.218l.4,5.436a.667.667,0,0,0,.646.619H4.9a.667.667,0,0,0,.646-.619l.4-5.435A1.647,1.647,0,0,0,7.276,6.009l.3-4.152a.96.96,0,0,0,0-.1A1.745,1.745,0,0,0,5.924,0H1.669A1.75,1.75,0,0,0,0,1.767" transform="translate(0 3.879)" fill="#fff"/>
      <path id="Fill_3" data-name="Fill 3" d="M3.173,1.607A1.6,1.6,0,0,0,1.586,0,1.6,1.6,0,0,0,0,1.607,1.6,1.6,0,0,0,1.586,3.214,1.6,1.6,0,0,0,3.173,1.607" transform="translate(2.205)" fill="#fff"/>
      <path id="Stroke_5" data-name="Stroke 5" d="M0,1.532.306,5.751c.043.5.714.94,1.252,1.02l.071.009L2.039,12.4a.431.431,0,0,0,.415.4H4.665a.431.431,0,0,0,.415-.4L5.491,6.78l.071-.009c.538-.08,1.208-.518,1.252-1.018l.3-4.148c0-.035,0-.058,0-.072A1.513,1.513,0,0,0,5.686,0H1.437A1.513,1.513,0,0,0,0,1.532Z" transform="translate(0.232 4.113)" fill="none" stroke="#555" stroke-linecap="round" stroke-linejoin="round" stroke-miterlimit="10" stroke-width="0.669"/>
      <path id="Stroke_7" data-name="Stroke 7" d="M1.355,2.745A1.365,1.365,0,0,0,2.709,1.372,1.365,1.365,0,0,0,1.355,0,1.365,1.365,0,0,0,0,1.372,1.365,1.365,0,0,0,1.355,2.745Z" transform="translate(2.437 0.235)" fill="none" stroke="#555" stroke-linecap="round" stroke-linejoin="round" stroke-miterlimit="10" stroke-width="0.669"/>
      <path id="Stroke_9" data-name="Stroke 9" d="M.108,0V6.24" transform="translate(3.685 10.499)" fill="none" stroke="#555" stroke-linecap="round" stroke-linejoin="round" stroke-miterlimit="10" stroke-width="0.669"/>
      <path id="Stroke_11" data-name="Stroke 11" d="M0,4.687.342,0" transform="translate(5.723 6.206)" fill="none" stroke="#555" stroke-linecap="round" stroke-linejoin="round" stroke-miterlimit="10" stroke-width="0.669"/>
      <path id="Stroke_13" data-name="Stroke 13" d="M.342,4.687,0,0" transform="translate(1.518 6.206)" fill="none" stroke="#555" stroke-linecap="round" stroke-linejoin="round" stroke-miterlimit="10" stroke-width="0.669"/>
      <path id="Fill_15" data-name="Fill 15" d="M5.914,0H1.659A1.745,1.745,0,0,0,0,1.757a.939.939,0,0,0,0,.1L.307,6.009A1.647,1.647,0,0,0,1.643,7.218l.4,5.435a.667.667,0,0,0,.646.62H4.9a.667.667,0,0,0,.645-.619l.4-5.436A1.646,1.646,0,0,0,7.277,6l.306-4.219c0-.005,0-.011,0-.017A1.75,1.75,0,0,0,5.914,0" transform="translate(9.083 3.879)" fill="#fff"/>
      <path id="Fill_17" data-name="Fill 17" d="M1.586,3.214A1.6,1.6,0,0,0,3.173,1.607,1.6,1.6,0,0,0,1.586,0,1.6,1.6,0,0,0,0,1.607,1.6,1.6,0,0,0,1.586,3.214" transform="translate(11.289 0)" fill="#fff"/>
      <path id="Stroke_19" data-name="Stroke 19" d="M7.12,1.532,6.814,5.751c-.043.5-.714.94-1.252,1.02l-.071.009L5.081,12.4a.431.431,0,0,1-.415.4H2.454a.431.431,0,0,1-.415-.4L1.629,6.78l-.071-.009C1.02,6.691.35,6.254.306,5.754L0,1.606c0-.035,0-.058,0-.072A1.513,1.513,0,0,1,1.433,0H5.683A1.513,1.513,0,0,1,7.12,1.532Z" transform="translate(9.315 4.113)" fill="none" stroke="#555" stroke-linecap="round" stroke-linejoin="round" stroke-miterlimit="10" stroke-width="0.669"/>
      <path id="Stroke_21" data-name="Stroke 21" d="M1.355,2.745A1.365,1.365,0,0,1,0,1.372,1.365,1.365,0,0,1,1.355,0,1.365,1.365,0,0,1,2.709,1.372,1.365,1.365,0,0,1,1.355,2.745Z" transform="translate(11.521 0.235)" fill="none" stroke="#555" stroke-linecap="round" stroke-linejoin="round" stroke-miterlimit="10" stroke-width="0.669"/>
      <path id="Stroke_23" data-name="Stroke 23" d="M.108,0V6.24" transform="translate(12.766 10.499)" fill="none" stroke="#555" stroke-linecap="round" stroke-linejoin="round" stroke-miterlimit="10" stroke-width="0.669"/>
      <path id="Stroke_25" data-name="Stroke 25" d="M.342,4.687,0,0" transform="translate(10.602 6.206)" fill="none" stroke="#555" stroke-linecap="round" stroke-linejoin="round" stroke-miterlimit="10" stroke-width="0.669"/>
      <path id="Stroke_27" data-name="Stroke 27" d="M0,4.687.342,0" transform="translate(14.806 6.206)" fill="none" stroke="#555" stroke-linecap="round" stroke-linejoin="round" stroke-miterlimit="10" stroke-width="0.669"/>
      <path id="Fill_29" data-name="Fill 29" d="M2.965,13.837a.952.952,0,0,1-.923-.881L1.658,7.72a1.844,1.844,0,0,1-1.35-1.4L0,2.161a1.132,1.132,0,0,1,0-.138A2.02,2.02,0,0,1,1.931,0H6.193A2.035,2.035,0,0,1,8.141,2.049L7.834,6.306A1.843,1.843,0,0,1,6.483,7.72L6.1,12.957a.951.951,0,0,1-.923.881Z" transform="translate(4.263 5.881)" fill="#fff"/>
      <path id="Fill_31" data-name="Fill 31" d="M5.456,14.4H3.244a1.221,1.221,0,0,1-1.2-1.142L1.673,8.207A2.044,2.044,0,0,1,.309,6.616L0,2.453c0-.066,0-.112,0-.144A2.316,2.316,0,0,1,2.217,0H6.485A2.317,2.317,0,0,1,8.7,2.332v.037l0,.022L8.39,6.617a2.04,2.04,0,0,1-1.363,1.59l-.369,5.052A1.221,1.221,0,0,1,5.456,14.4ZM2.217.565A1.739,1.739,0,0,0,.559,2.321a.993.993,0,0,0,0,.1L.865,6.575c.051.584.719,1.073,1.336,1.208l.4,5.435a.667.667,0,0,0,.645.62H5.456a.667.667,0,0,0,.645-.619l.4-5.436A1.647,1.647,0,0,0,7.835,6.568l.306-4.219V2.332A1.751,1.751,0,0,0,6.472.565Z" transform="translate(3.984 5.598)" fill="#fff"/>
      <path id="Fill_33" data-name="Fill 33" d="M1.866,3.779A1.88,1.88,0,0,1,0,1.89,1.88,1.88,0,0,1,1.866,0,1.879,1.879,0,0,1,3.731,1.89,1.879,1.879,0,0,1,1.866,3.779" transform="translate(6.469 2.002)" fill="#fff"/>
      <path id="Fill_35" data-name="Fill 35" d="M2.144,4.343A2.16,2.16,0,0,1,0,2.172,2.16,2.16,0,0,1,2.144,0,2.16,2.16,0,0,1,4.288,2.172,2.16,2.16,0,0,1,2.144,4.343Zm0-3.778a1.607,1.607,0,0,0,0,3.213,1.607,1.607,0,0,0,0-3.213Z" transform="translate(6.19 1.719)" fill="#fff"/>
      <path id="Stroke_37" data-name="Stroke 37" d="M1.355,2.745A1.365,1.365,0,0,1,0,1.372,1.365,1.365,0,0,1,1.355,0,1.365,1.365,0,0,1,2.709,1.372,1.365,1.365,0,0,1,1.355,2.745Z" transform="translate(6.979 2.519)" fill="none" stroke="#555" stroke-linecap="round" stroke-linejoin="round" stroke-miterlimit="10" stroke-width="0.669"/>
      <path id="Stroke_39" data-name="Stroke 39" d="M.108,0V6.24" transform="translate(8.225 12.783)" fill="none" stroke="#555" stroke-linecap="round" stroke-linejoin="round" stroke-miterlimit="10" stroke-width="0.669"/>
      <path id="Stroke_41" data-name="Stroke 41" d="M.342,4.687,0,0" transform="translate(6.06 8.491)" fill="none" stroke="#555" stroke-linecap="round" stroke-linejoin="round" stroke-miterlimit="10" stroke-width="0.669"/>
      <path id="Stroke_43" data-name="Stroke 43" d="M0,4.687.342,0" transform="translate(10.265 8.491)" fill="none" stroke="#555" stroke-linecap="round" stroke-linejoin="round" stroke-miterlimit="10" stroke-width="0.669"/>
      <path id="Stroke_45" data-name="Stroke 45" d="M7.12,1.532,6.814,5.751c-.043.5-.714.94-1.252,1.02l-.071.009L5.081,12.4a.431.431,0,0,1-.415.4H2.454a.431.431,0,0,1-.415-.4L1.629,6.78l-.071-.009C1.02,6.691.35,6.254.306,5.754L0,1.606c0-.035,0-.058,0-.072A1.513,1.513,0,0,1,1.434,0H5.683A1.513,1.513,0,0,1,7.12,1.532Z" transform="translate(4.774 6.398)" fill="none" stroke="#555" stroke-linecap="round" stroke-linejoin="round" stroke-miterlimit="10" stroke-width="0.669"/>
    </g>
  </g>
</svg>
