<?xml version="1.0" encoding="UTF-8"?><svg version="1.1" width="22px" height="22px" viewBox="0 0 22.0 22.0" xmlns="http://www.w3.org/2000/svg" xmlns:xlink="http://www.w3.org/1999/xlink"><defs><clipPath id="i0"><path d="M1440,0 L1440,7227 L0,7227 L0,0 L1440,0 Z"></path></clipPath><clipPath id="i1"><path d="M8.08073555,0.00161814095 C10.2102316,-0.040556724 12.2734158,0.743096256 13.8379168,2.18837035 C15.4025484,3.63363531 16.3469903,5.62834156 16.4734292,7.75451027 C16.599868,9.88066594 15.8985174,11.9732612 14.5163023,13.593805 C15.1109171,13.6116813 15.675912,13.8568604 16.0951566,14.2788451 L21.3066806,18.7074662 C21.5054075,18.8692661 21.6726877,19.072299 21.7926024,19.3033858 C21.9123865,19.5343422 21.9820649,19.7881333 21.99694,20.048057 C22.0119457,20.3078503 21.9716262,20.5679046 21.8789826,20.8111265 C21.7863391,21.0543483 21.6433289,21.2752574 21.4592162,21.4592396 C21.275234,21.6432218 21.0543249,21.7863626 20.811103,21.8790061 C20.5678812,21.9716496 20.3078269,22.0118386 20.0480336,21.9969635 C19.7881098,21.9820883 19.5344493,21.91241 19.3033624,21.7926258 C19.0722755,21.6727112 18.8692427,21.5053004 18.7074428,21.3014847 L14.2788217,16.09518 C13.856837,15.6759355 13.6116579,15.1109405 13.5937816,14.5163257 C11.9732638,15.8985409 9.88066859,16.5998914 7.75449988,16.4734526 C5.62834422,16.3468833 3.63363796,15.4024414 2.18835996,13.8379403 C0.743096302,12.2734262 -0.0405568086,10.2102289 0.00161814771,8.08073289 C0.0437930257,5.95122379 0.908522392,3.92068668 2.41460586,2.41460321 C3.92068933,0.908522346 5.95122645,0.0437931103 8.08073555,0.00161814095 Z M10.3548077,3.16896935 C9.35086511,2.75305216 8.24613684,2.6441634 7.1803058,2.85606914 C6.11448781,3.06798792 5.13542852,3.59117587 4.36693097,4.35947769 C3.59843343,5.12779256 3.07501061,6.10673442 2.86285695,7.17251326 C2.65069025,8.23827906 2.75931804,9.34303343 3.17500036,10.3470804 C3.59068269,11.3511273 4.29473427,12.2093716 5.19816514,12.8132899 C6.10158296,13.4172604 7.1637996,13.739686 8.25048196,13.739947 C8.9721619,13.7400774 9.68680877,13.598111 10.3536072,13.3220072 C11.0204057,13.0459948 11.6262812,12.6412992 12.1366557,12.1310553 C12.6470171,11.6207982 13.0518823,11.015014 13.3281165,10.3482939 C13.6043508,9.68156067 13.7464477,8.96693989 13.7464477,8.24525995 C13.7464477,7.15857759 13.4242831,6.09629571 12.8205344,5.19272131 C12.2168249,4.28915996 11.3587502,3.58488655 10.3548077,3.16896935 Z"></path></clipPath></defs><g transform="translate(-920.0 -321.0)"><g clip-path="url(#i0)"><g transform="translate(482.0 299.0)"><g transform="translate(437.9999999999991 22.00000000000003)"><g clip-path="url(#i1)"><polygon points="-1.08420217e-18,0 22,0 22,21.9999837 -1.08420217e-18,21.9999837 -1.08420217e-18,0" stroke="none" fill="#4F4F4F"></polygon></g></g></g></g></g></svg>