<?xml version="1.0" encoding="UTF-8"?><svg version="1.1" width="17px" height="17px" viewBox="0 0 17.0 17.0" xmlns="http://www.w3.org/2000/svg" xmlns:xlink="http://www.w3.org/1999/xlink"><defs><clipPath id="i0"><path d="M375,0 L375,9321 L0,9321 L0,0 L375,0 Z"></path></clipPath><clipPath id="i1"><path d="M375,0 L375,252 L0,252 L0,0 L375,0 Z"></path></clipPath><clipPath id="i2"><path d="M6.19290203,0.00124010844 C7.82490203,-0.0310818016 9.40608203,0.569492998 10.605082,1.67712 C11.804182,2.78474 12.527982,4.31344 12.624882,5.94289 C12.721782,7.57233 12.184282,9.17605 11.124982,10.418 C11.580682,10.4317 12.013682,10.6196 12.334982,10.943 L16.328982,14.337 C16.481282,14.461 16.609482,14.6166 16.701382,14.7937 C16.793182,14.9707 16.846582,15.1652 16.857982,15.3644 C16.869482,15.5635 16.838582,15.7628 16.767582,15.9492 C16.696582,16.1356 16.586982,16.3049 16.445882,16.4459 C16.304882,16.5869 16.135582,16.6966 15.949182,16.7676 C15.762782,16.8386 15.563482,16.8694 15.364382,16.858 C15.165182,16.8466 14.970782,16.7932 14.793682,16.7014 C14.616582,16.6095 14.460982,16.4812 14.336982,16.325 L10.942982,12.335 C10.619582,12.0137 10.431682,11.5807 10.417982,11.125 C9.17605203,12.1843 7.57233203,12.7218 5.94288203,12.6249 C4.31344203,12.5279 2.78474203,11.8041 1.67711203,10.6051 C0.569493034,9.40609 -0.0310818664,7.8249 0.00124011363,6.1929 C0.0335620336,4.56089 0.696272034,3.00473 1.85050203,1.8505 C3.00473203,0.696271998 4.56089203,0.0335620984 6.19290203,0.00124010844 Z M7.93570203,2.42863 C7.16630203,2.10988 6.31966203,2.02643 5.50283203,2.18883 C4.68601203,2.35124 3.93568203,2.7522 3.34672203,3.34101 C2.75776203,3.92983 2.35662203,4.68007 2.19403203,5.49686 C2.03143203,6.31364 2.11468203,7.1603 2.43325203,7.92978 C2.75182203,8.69926 3.29139203,9.357 3.98376203,9.81983 C4.67612203,10.2827 5.49018203,10.5298 6.32299203,10.5300001 C6.87607203,10.5301 7.42376203,10.4213 7.93478203,10.2097 C8.44580203,9.99817 8.91013203,9.68802 9.30127203,9.29698 C9.69240203,8.90593 10.002682,8.44167 10.214382,7.93071 C10.426082,7.41974 10.534982,6.87207 10.534982,6.31899 C10.534982,5.48618 10.288082,4.67207 9.82538203,3.97959 C9.36271203,3.28712 8.70510203,2.74738 7.93570203,2.42863 Z"></path></clipPath></defs><g transform="translate(-283.0 -163.0)"><g clip-path="url(#i0)"><g clip-path="url(#i1)"><g transform="translate(59.0 148.0)"><g transform="translate(223.9999999999991 14.999999999999998)"><g clip-path="url(#i2)"><polygon points="0,0 16.8603271,0 16.8603271,16.8603147 0,16.8603147 0,0" stroke="none" fill="#7C7958"></polygon></g></g></g></g></g></g></svg>