<?xml version="1.0" encoding="UTF-8"?><svg version="1.1" width="20px" height="12px" viewBox="0 0 20.0 12.0" xmlns="http://www.w3.org/2000/svg" xmlns:xlink="http://www.w3.org/1999/xlink"><defs><clipPath id="i0"><path d="M872,0 L872,310 L0,310 L0,0 L872,0 Z"></path></clipPath><clipPath id="i1"><path d="M9.90712074,0 C13.9164037,0 17.4862167,2.34546 19.8142415,6 C17.4862167,9.65454 13.9164037,12 9.90712074,12 C5.89783777,12 2.32802477,9.65454 0,6 C2.32802477,2.34546 5.89783777,0 9.90712074,0 Z M9.90712074,2 C7.71852879,2 5.94427245,3.79089 5.94427245,6 C5.94427245,8.20911 7.71852879,10 9.90712074,10 C12.0957127,10 13.869969,8.20911 13.869969,6 C13.869969,3.79089 12.0957127,2 9.90712074,2 Z"></path></clipPath><clipPath id="i2"><path d="M2.37772879,0 C3.6908582,0 4.75545759,1.07446 4.75545759,2.40002 C4.75545759,3.72546 3.6908582,4.80005 2.37772879,4.80005 C1.06459938,4.80005 0,3.72546 0,2.40002 C0,1.07446 1.06459938,0 2.37772879,0 Z"></path></clipPath></defs><g transform="translate(-282.0 -133.0)"><g clip-path="url(#i0)"><g transform="translate(281.9999999999998 133.0)"><g clip-path="url(#i1)"><polygon points="0,0 19.8142415,0 19.8142415,12 0,12 0,0" stroke="none" fill="#898775"></polygon></g><g transform="translate(7.529391950464376 3.599975999999999)"><g clip-path="url(#i2)"><polygon points="0,0 4.75545759,0 4.75545759,4.80005 0,4.80005 0,0" stroke="none" fill="#898775"></polygon></g></g></g></g></g></svg>