<?xml version="1.0" encoding="UTF-8"?><svg version="1.1" width="20px" height="15px" viewBox="0 0 20.0 15.0" xmlns="http://www.w3.org/2000/svg" xmlns:xlink="http://www.w3.org/1999/xlink"><defs><clipPath id="i0"><path d="M872,0 L872,310 L0,310 L0,0 L872,0 Z"></path></clipPath><clipPath id="i1"><path d="M9.90712272,0 C10.4520541,0 10.9867217,0.0513900103 11.5133943,0.135500027 L9.63924403,2.02722041 C7.66834085,2.16247043 6.10523466,3.74023075 5.97124082,5.72961115 L2.64210084,9.08996182 C1.65259723,8.21521164 0.755368572,7.18579144 0,6 C2.32802523,2.34546047 5.89782904,0 9.90712272,0 Z"></path></clipPath><clipPath id="i2"><path d="M16.9127365,0 L16.9127365,14.1415998 L0,14.1415998 L0,0 L16.9127365,0 Z"></path></clipPath><clipPath id="i3"><path d="M12.6093301,0 L14.0102567,1.41406028 L12.6597573,2.77722056 C14.3129589,3.81189076 15.7672254,5.27319105 16.9127365,7.07129141 C14.5847113,10.7258321 11.0148976,13.0712926 7.00561379,13.0712926 C5.68038751,13.0712926 4.41237488,12.7894326 3.21291953,12.3126225 L1.4009266,14.1416028 L0,12.7275425 L12.6093301,0 Z M10.4120293,5.04602101 L9.22274859,6.24646125 C9.31925388,6.5044013 9.38334305,6.77771136 9.38334305,7.07129141 C9.38334305,8.39673168 8.31874346,9.47132189 7.00561379,9.47132189 C6.71476048,9.47132189 6.443979,9.40662188 6.18844458,9.30921186 L4.99915394,10.5096521 C5.58618068,10.8645022 6.26983159,11.0712922 7.00561379,11.0712922 C9.19420617,11.0712922 10.9684629,9.28052186 10.9684629,7.07129141 C10.9684629,6.32861127 10.7635935,5.63855113 10.4120293,5.04602101 Z"></path></clipPath></defs><g transform="translate(-374.0 -145.0)"><g clip-path="url(#i0)"><g transform="translate(374.00000000000017 145.00000000000006)"><g transform="translate(0.0 1.071289214258286)"><g clip-path="url(#i1)"><polygon points="0,0 11.5133943,0 11.5133943,9.08996182 0,9.08996182 0,0" stroke="none" fill="#898775"></polygon></g></g><g transform="translate(2.9015049765860113 0.0)"><g clip-path="url(#i2)"><g transform="translate(0.0 -3.0000005608599167e-06)"><g clip-path="url(#i3)"><polygon points="0,3.00000056e-06 16.9127365,3.00000056e-06 16.9127365,14.1416028 0,14.1416028 0,3.00000056e-06" stroke="none" fill="#898775"></polygon></g></g></g></g></g></g></g></svg>