<svg version="1.1" id="Layer_1" xmlns="http://www.w3.org/2000/svg" xmlns:xlink="http://www.w3.org/1999/xlink" x="0px" y="0px"
	 width="100%" viewBox="0 0 3000 1250" enable-background="new 0 0 3000 1250" xml:space="preserve">
<path fill="#FEC32D" opacity="1.000000" stroke="none" 
	d="
M2048.000000,1251.000000 
	C1365.333374,1251.000000 683.166687,1251.000000 1.000000,1251.000000 
	C1.000000,834.333313 1.000000,417.666656 1.000000,1.000000 
	C1001.000000,1.000000 2001.000000,1.000000 3001.000000,1.000000 
	C3001.000000,417.666656 3001.000000,834.333313 3001.000000,1251.000000 
	C2683.500000,1251.000000 2366.000000,1251.000000 2048.000000,1251.000000 
M2084.112793,588.159424 
	C2083.977539,588.010010 2083.842529,587.860596 2084.110596,587.166199 
	C2117.373291,563.808777 2150.639648,540.456482 2183.895020,517.088867 
	C2189.524170,513.133606 2190.968506,509.423126 2189.514404,502.992310 
	C2187.599121,494.520142 2183.667969,491.389343 2174.717773,491.386780 
	C2120.723877,491.371429 2066.730225,491.378326 2012.736450,491.378662 
	C2006.737183,491.378693 2000.702026,491.000183 1994.754028,491.553528 
	C1991.885498,491.820343 1988.259155,493.113281 1986.583374,495.220123 
	C1982.399780,500.479980 1982.842651,506.771576 1985.377075,512.744751 
	C1987.593018,517.967102 1992.275513,518.147644 1997.175659,518.139343 
	C2041.503784,518.063843 2085.832031,518.085266 2130.160156,518.124634 
	C2132.456787,518.126648 2134.752686,518.550110 2137.049072,518.777344 
	C2137.127930,519.278870 2137.206787,519.780396 2137.285645,520.281921 
	C2135.813232,521.515930 2134.399170,522.828613 2132.860107,523.972412 
	C2099.296631,548.913635 2065.717773,573.834534 2032.145264,598.763489 
	C2025.187012,603.930176 2024.160400,608.920532 2028.500854,616.349609 
	C2032.780273,623.674133 2037.871338,625.004578 2045.628296,622.114014 
	C2060.415771,616.603577 2075.160156,610.744324 2090.350586,606.599915 
	C2116.011963,599.598633 2141.960693,598.950195 2167.728760,606.936218 
	C2210.322510,620.137085 2211.943359,669.263916 2192.513672,690.325134 
	C2181.911133,701.817993 2168.899658,709.086365 2154.402588,714.156860 
	C2132.930664,721.666992 2110.609375,723.899170 2088.075928,724.820923 
	C2079.373291,725.176819 2075.584717,729.545593 2076.312744,738.304688 
	C2077.114746,747.948914 2080.750000,751.350098 2090.256348,751.032349 
	C2097.245850,750.798706 2104.244141,750.523987 2111.208740,749.922974 
	C2136.403076,747.748840 2161.071289,743.215149 2183.995850,731.953247 
	C2211.957275,718.216980 2230.993896,697.473694 2233.403320,665.061584 
	C2235.562012,636.019470 2226.717041,611.396606 2201.471191,594.651550 
	C2185.458740,584.030701 2167.302979,580.061035 2148.409668,579.211182 
	C2126.529053,578.226990 2105.294189,582.044128 2084.112793,588.159424 
M835.710571,597.802368 
	C791.725281,584.639282 747.777466,571.348755 703.725403,558.412964 
	C694.104736,555.587830 684.265381,556.665283 674.674011,559.732605 
	C661.184509,564.046631 651.356689,573.123169 643.327942,584.235352 
	C616.300537,621.642212 596.118469,661.562744 598.866211,709.546387 
	C599.683960,723.828003 599.033936,738.472351 602.052917,752.296082 
	C610.538330,791.150330 630.471008,824.598145 655.517151,854.948792 
	C661.738708,862.488037 669.744507,869.454407 678.361694,873.924622 
	C694.848938,882.477478 719.678406,873.193481 724.939331,853.594604 
	C726.231079,848.782593 728.280273,844.117737 729.072571,839.237610 
	C732.246155,819.689575 734.405945,799.956299 738.167542,780.529114 
	C743.547424,752.745239 756.941528,728.988342 780.227844,712.601562 
	C792.729980,703.803833 807.128235,697.235596 821.424988,691.561401 
	C843.275757,682.888977 865.789124,675.539185 889.943848,680.217834 
	C900.344055,682.232361 906.560242,680.167358 905.923462,665.145874 
	C905.874268,663.985779 905.726196,662.819214 905.505005,661.678772 
	C901.603149,641.559143 890.658386,625.915466 873.357910,615.561584 
	C861.724915,608.599609 848.798279,603.799438 835.710571,597.802368 
M763.979980,400.644012 
	C759.356140,383.884338 751.682678,376.782349 736.769653,376.156189 
	C723.621216,375.604187 710.628662,377.507507 698.861633,383.344849 
	C677.982666,393.702301 659.867249,407.512909 647.772461,428.139404 
	C643.402710,435.591614 638.852600,443.038849 633.509033,449.795746 
	C625.361572,460.098114 614.473877,465.439575 601.074951,463.550354 
	C594.686768,462.649628 588.325867,461.035980 582.176514,459.051392 
	C557.985046,451.244019 535.802002,439.005249 513.277710,427.502014 
	C504.256897,422.895050 494.892609,418.951202 485.623749,414.843018 
	C479.710999,412.222382 474.031158,413.144470 468.383331,416.133362 
	C454.918823,423.258942 450.560394,435.619812 450.130096,449.458954 
	C448.789215,492.584778 461.579498,531.439026 486.813690,566.319580 
	C493.797516,575.973206 500.132935,577.316650 510.786041,572.156799 
	C534.885803,560.484009 558.960266,548.731262 583.373596,537.740906 
	C610.203064,525.662842 638.509888,519.850342 667.978333,522.100525 
	C693.520996,524.050964 719.027771,526.665283 744.469177,529.673279 
	C758.970337,531.387817 765.956604,526.013428 765.958862,511.285492 
	C765.963440,481.464966 766.072021,451.643677 765.874939,421.824432 
	C765.830017,415.038330 764.715393,408.259277 763.979980,400.644012 
M1152.329590,673.721375 
	C1141.765137,692.601196 1127.428345,707.767944 1108.487671,718.454712 
	C1101.637329,722.319946 1099.706543,729.308716 1103.489990,735.843201 
	C1107.403198,742.601868 1113.834595,744.158691 1120.946289,739.852966 
	C1147.849976,723.563965 1165.223389,699.528137 1176.831909,670.839783 
	C1177.672363,668.762695 1178.461182,666.664734 1179.274048,664.576477 
	C1179.659668,664.643921 1180.045410,664.711365 1180.431152,664.778809 
	C1180.431152,666.522095 1180.431152,668.265320 1180.431152,670.008606 
	C1180.432007,693.169861 1180.488525,716.331299 1180.394531,739.492126 
	C1180.371216,745.235840 1182.309082,749.578308 1187.739746,751.917908 
	C1196.680420,755.769409 1205.736572,749.856689 1205.766846,740.023132 
	C1205.841675,715.695679 1205.788940,691.367920 1205.803955,667.040283 
	C1205.805054,665.404419 1205.944702,663.768677 1206.019775,662.132874 
	C1207.592651,664.275940 1208.346436,666.448486 1209.185669,668.587585 
	C1220.816162,698.232300 1238.706787,722.886230 1266.187744,739.837280 
	C1272.673706,743.837952 1279.466064,742.082581 1283.290894,735.636719 
	C1287.049194,729.302795 1285.186523,722.403259 1278.334229,718.733826 
	C1257.579102,707.619141 1242.875977,690.845825 1232.753662,669.914185 
	C1229.464355,663.112122 1227.120239,655.853088 1224.040283,648.032471 
	C1227.159302,648.032471 1228.968018,648.032837 1230.776855,648.032410 
	C1241.940918,648.029968 1253.105225,648.083130 1264.268799,648.001099 
	C1269.844116,647.960144 1273.713745,644.780273 1275.079712,639.455200 
	C1277.191650,631.221558 1272.007568,624.340759 1263.389282,624.289368 
	C1246.227173,624.187073 1229.064087,624.256104 1211.901489,624.254517 
	C1209.987427,624.254333 1208.073364,624.254456 1206.117310,624.254456 
	C1206.117310,613.474792 1206.117310,603.557800 1206.117310,593.096191 
	C1208.222412,593.096191 1210.010620,593.096252 1211.798950,593.096191 
	C1225.129150,593.095520 1238.459595,593.142883 1251.789551,593.081604 
	C1267.111694,593.011108 1276.042603,584.172363 1276.101562,568.915527 
	C1276.179565,548.753906 1276.176392,528.591553 1276.100464,508.429840 
	C1276.044312,493.514893 1267.070557,484.255554 1252.213867,484.206818 
	C1212.890137,484.077850 1173.565552,484.080383 1134.241821,484.208862 
	C1119.660767,484.256470 1110.398193,493.434204 1110.252808,507.956085 
	C1110.047607,528.449219 1110.037842,548.947632 1110.254028,569.440552 
	C1110.408325,584.074402 1119.618408,592.977417 1134.228394,593.073303 
	C1147.724609,593.161926 1161.221924,593.094788 1174.718750,593.096191 
	C1176.474609,593.096375 1178.230469,593.096252 1180.081543,593.096252 
	C1180.081543,603.817932 1180.081543,613.731384 1180.081543,624.254517 
	C1177.787842,624.254517 1175.836182,624.254456 1173.884399,624.254517 
	C1157.055054,624.255188 1140.225586,624.229370 1123.396362,624.270264 
	C1117.164062,624.285339 1113.656738,626.615479 1111.735474,631.765869 
	C1108.674561,639.971680 1114.090820,647.973755 1122.838135,648.014771 
	C1135.799683,648.075623 1148.761841,648.030518 1163.328491,648.030518 
	C1159.525635,657.014648 1156.123047,665.053040 1152.329590,673.721375 
M406.120117,732.115784 
	C408.667114,745.866821 413.393951,750.677795 427.029144,753.126221 
	C431.283936,753.890259 435.578888,754.566895 439.884949,754.887390 
	C474.211884,757.441589 508.508636,755.606750 542.784241,753.768433 
	C557.421875,752.983398 566.171875,739.982056 562.259644,725.735229 
	C560.938538,720.924377 559.426147,716.154968 557.758240,711.452759 
	C554.686951,702.794067 554.381470,693.992310 557.535950,685.491211 
	C560.707520,676.944153 564.111938,668.325073 568.700745,660.491150 
	C584.185059,634.056885 600.203308,607.934570 616.117798,581.754028 
	C618.635925,577.611450 619.993469,573.607239 617.152710,569.186890 
	C614.438721,564.963928 610.368591,564.321716 605.747009,564.887939 
	C578.862732,568.181519 553.318359,576.058533 529.305786,588.406799 
	C478.409546,614.579712 442.704224,656.246826 413.278992,704.016663 
	C408.258972,712.166260 406.138641,721.540710 406.120117,732.115784 
M1555.494873,749.845825 
	C1557.327271,749.845825 1559.159790,749.846313 1560.992188,749.845825 
	C1585.423218,749.839172 1598.036255,737.326477 1598.049316,713.035095 
	C1598.065552,682.714172 1598.072266,652.393188 1598.045532,622.072266 
	C1598.031006,605.509949 1589.377075,596.855774 1572.766235,596.849426 
	C1510.125122,596.825317 1447.484009,596.823914 1384.842896,596.849792 
	C1368.453369,596.856506 1359.690674,605.387634 1359.639282,621.660339 
	C1359.535156,654.646484 1359.586182,687.633301 1359.626099,720.619812 
	C1359.636353,729.125549 1364.591187,734.058533 1372.853271,734.049561 
	C1381.042603,734.040649 1385.974609,728.978577 1385.999268,720.521423 
	C1386.017944,714.093079 1386.002930,707.664673 1386.002930,701.188965 
	C1448.307983,701.188965 1509.879150,701.188965 1571.815308,701.188965 
	C1571.815308,707.393982 1572.273438,713.384583 1571.696777,719.273926 
	C1571.010498,726.280396 1565.152954,731.142944 1557.984863,731.328613 
	C1551.325195,731.501038 1544.655273,731.271667 1537.994995,731.429443 
	C1532.345825,731.563232 1528.661377,735.193848 1528.582642,740.321594 
	C1528.500854,745.650391 1532.381714,749.674194 1538.004639,749.810852 
	C1543.499268,749.944458 1548.999390,749.843689 1555.494873,749.845825 
M2507.785400,589.500000 
	C2507.785400,603.938354 2507.785400,618.376709 2507.785400,632.923828 
	C2505.962646,632.923828 2504.805908,633.052063 2503.685303,632.903870 
	C2492.801025,631.464233 2481.958496,629.586487 2471.034912,628.597534 
	C2454.687744,627.117615 2438.437256,627.708435 2422.623535,632.954468 
	C2397.592529,641.258240 2381.652344,661.614319 2380.242920,687.280151 
	C2378.923584,711.309570 2392.571533,732.760864 2416.205322,743.326965 
	C2433.100830,750.880676 2450.833252,751.848389 2469.058838,750.094666 
	C2503.967041,746.735718 2528.614990,723.447876 2533.104004,688.709473 
	C2533.972412,681.989441 2534.248291,675.192932 2534.868652,667.554810 
	C2543.261719,671.032349 2551.109619,674.540710 2559.167236,677.473389 
	C2561.735107,678.407959 2565.320801,678.805054 2567.639160,677.725952 
	C2573.681885,674.913330 2574.740234,668.928345 2574.872803,662.907532 
	C2574.994141,657.398254 2572.204346,653.936218 2566.999512,652.093811 
	C2557.434326,648.707703 2547.979492,645.006226 2538.386230,641.704895 
	C2535.346924,640.658997 2534.310303,639.118347 2534.323242,635.943542 
	C2534.430420,609.282043 2534.467285,582.619385 2534.297119,555.958557 
	C2534.270752,551.844482 2535.744141,550.878357 2539.515381,551.021423 
	C2546.171387,551.273987 2552.843506,551.116333 2559.509033,551.084656 
	C2567.451172,551.046875 2571.173584,546.748535 2571.156738,537.707825 
	C2571.140381,528.965698 2567.510498,524.857971 2559.598389,524.853027 
	C2520.438721,524.828552 2481.279053,524.831421 2442.119385,524.852112 
	C2434.240234,524.856323 2430.702148,528.913513 2430.704834,537.754456 
	C2430.707764,546.830750 2434.365479,551.074097 2442.299805,551.083008 
	C2462.129639,551.105347 2481.959473,551.091248 2501.789307,551.091736 
	C2503.572266,551.091736 2505.355225,551.091736 2506.829834,551.091736 
	C2507.297363,551.952087 2507.585205,552.235168 2507.587158,552.520264 
	C2507.669189,564.513428 2507.725586,576.506714 2507.785400,589.500000 
M1679.361450,526.963623 
	C1672.437012,540.527100 1678.008911,549.980042 1692.926636,549.982910 
	C1703.091064,549.984802 1713.256104,549.949219 1723.419434,550.058777 
	C1724.597290,550.071472 1725.766113,550.906616 1726.939209,551.360474 
	C1726.464600,552.526428 1726.135498,553.785583 1725.468384,554.828430 
	C1724.951050,555.637085 1724.010620,556.174744 1723.259033,556.833740 
	C1704.065796,573.665649 1691.034546,594.401245 1684.377563,619.020264 
	C1670.789307,669.271851 1693.708496,716.106201 1741.735718,736.200439 
	C1764.551514,745.746521 1788.334106,747.097900 1812.387817,742.774719 
	C1846.460938,736.650818 1872.849609,719.316589 1889.167725,688.075439 
	C1898.820679,669.594849 1901.942017,649.713867 1901.873169,629.119141 
	C1901.867065,627.301392 1902.935303,625.480042 1903.504517,623.660339 
	C1905.407593,624.353943 1907.685181,624.598022 1909.149536,625.818115 
	C1915.802856,631.362610 1922.174927,637.243408 1928.771729,642.857971 
	C1930.358643,644.208740 1932.309448,645.560730 1934.281494,645.945679 
	C1939.118896,646.889771 1944.821655,642.320068 1947.650513,635.778381 
	C1950.212646,629.853333 1949.449219,625.589783 1944.905273,621.917969 
	C1930.521606,610.294983 1916.051392,598.778992 1901.698120,587.118896 
	C1897.973755,584.093384 1894.129639,583.726013 1890.130249,585.978027 
	C1882.687622,590.168884 1878.216675,596.200928 1877.932739,605.181335 
	C1877.496826,618.972351 1877.921753,632.962097 1875.687988,646.488831 
	C1871.116211,674.173462 1857.494019,696.377502 1831.573608,709.379883 
	C1813.417847,718.487183 1794.049805,720.192322 1774.113525,717.916992 
	C1726.996704,712.539551 1698.466675,672.274170 1709.551025,626.292908 
	C1717.463013,593.471619 1736.696655,568.947998 1765.489258,551.662048 
	C1771.874634,547.828552 1773.377808,543.294495 1771.183716,535.456238 
	C1768.797974,526.932617 1764.479004,523.004211 1757.222656,522.993286 
	C1734.227539,522.958618 1711.231079,522.864624 1688.239014,523.128784 
	C1685.425659,523.161133 1682.635742,525.229065 1679.361450,526.963623 
M1563.844849,522.984070 
	C1561.675415,525.179871 1557.732544,527.352173 1557.703003,529.576294 
	C1557.640259,534.316284 1559.608154,539.083313 1560.869141,544.363403 
	C1512.281494,558.039795 1461.701416,556.184753 1410.291504,557.219666 
	C1417.471802,544.826721 1424.105835,533.694397 1430.375000,522.360229 
	C1432.234497,518.998291 1434.298340,517.815735 1438.167358,517.827820 
	C1485.149292,517.975098 1532.131714,517.931030 1579.114014,517.915588 
	C1587.045410,517.913025 1591.862549,513.502197 1591.827271,506.403931 
	C1591.791870,499.292816 1587.029175,495.034546 1579.006714,495.030029 
	C1552.350098,495.015015 1525.693604,495.024261 1499.036987,495.024200 
	C1497.104004,495.024200 1495.171143,495.024170 1493.327759,495.024170 
	C1491.493286,479.020569 1489.461792,475.670105 1480.429077,475.428070 
	C1476.968628,475.335388 1473.138306,476.450012 1470.038208,478.081573 
	C1463.206421,481.677094 1466.452881,489.084595 1464.848145,495.024170 
	C1462.632812,495.024170 1460.660034,495.024170 1458.687256,495.024170 
	C1431.864014,495.024414 1405.040894,495.010162 1378.217651,495.035797 
	C1372.031250,495.041687 1368.489746,497.507202 1366.835327,502.747009 
	C1364.329590,510.682526 1369.312256,517.778442 1377.637817,517.893860 
	C1386.202637,518.012695 1394.770508,517.920227 1404.227905,517.920227 
	C1396.636353,531.009216 1389.620483,543.245972 1382.376831,555.346313 
	C1381.753052,556.388184 1379.629517,556.979858 1378.186890,557.009277 
	C1370.359863,557.168945 1362.527588,557.059570 1354.697388,557.094238 
	C1347.091919,557.127991 1342.611328,561.162537 1342.568604,567.934082 
	C1342.524170,574.970825 1347.001831,579.163330 1354.895630,579.001892 
	C1401.855103,578.041443 1448.826660,577.404175 1495.765259,575.809448 
	C1518.899170,575.023438 1541.853882,571.679382 1564.172363,565.022949 
	C1567.298584,564.090637 1570.406372,563.096252 1573.560547,562.118896 
	C1577.988770,569.101685 1582.067017,575.776611 1586.395874,582.284912 
	C1590.132935,587.903687 1597.573120,588.998108 1603.646851,585.091003 
	C1609.624268,581.245789 1610.573730,576.308167 1606.480957,569.728455 
	C1598.038574,556.155945 1589.560913,542.605347 1581.071411,529.062195 
	C1576.804077,522.254761 1572.762817,520.720703 1563.844849,522.984070 
M1081.112061,525.752014 
	C1081.410156,521.100952 1081.853516,516.453491 1081.968994,511.797943 
	C1082.107788,506.205292 1079.305298,502.261047 1074.163818,500.272308 
	C1064.748169,496.630341 1056.843872,502.708069 1056.008423,513.579041 
	C1053.322876,548.519226 1043.552368,580.590271 1017.722046,606.003296 
	C1013.442383,610.213806 1013.101501,617.329163 1016.552551,622.073181 
	C1020.049988,626.880920 1026.932983,628.962280 1032.130371,625.891113 
	C1036.059448,623.569458 1039.323853,620.096436 1042.788818,617.028320 
	C1044.167603,615.807434 1045.290039,614.297058 1046.529297,612.918518 
	C1046.887939,613.112366 1047.246460,613.306152 1047.605103,613.499939 
	C1047.605103,615.470276 1047.604980,617.440552 1047.605103,619.410889 
	C1047.605957,652.406799 1047.583618,685.402710 1047.624268,718.398621 
	C1047.634033,726.306030 1051.740112,730.796265 1059.121704,731.291992 
	C1067.422241,731.849487 1072.854858,726.913391 1072.862915,718.581909 
	C1072.898682,681.253174 1072.731812,643.923462 1072.994873,606.596558 
	C1073.052368,598.428162 1071.934570,591.827576 1062.120605,590.018738 
	C1072.663452,569.683716 1078.936035,548.775940 1081.112061,525.752014 
M2341.532715,583.500122 
	C2341.532471,555.195740 2341.604248,526.890869 2341.423828,498.587646 
	C2341.405029,495.631836 2340.763672,491.859833 2338.902344,489.898071 
	C2334.303955,485.051788 2328.161133,485.224731 2322.156006,487.257843 
	C2316.611816,489.134888 2315.703369,493.508850 2315.718994,498.824829 
	C2315.842773,541.614075 2315.787842,584.403870 2315.788086,627.193481 
	C2315.788330,649.004517 2315.704834,670.816284 2315.900146,692.625610 
	C2315.923584,695.216064 2316.705078,698.641907 2318.453613,700.214966 
	C2323.469971,704.728149 2329.609131,704.832581 2335.772705,702.410706 
	C2341.109863,700.313538 2341.583740,695.843384 2341.572998,690.891418 
	C2341.497803,655.427795 2341.532471,619.963928 2341.532715,583.500122 
M2520.306152,509.691681 
	C2524.853516,507.683594 2529.884277,506.046326 2531.132812,500.419739 
	C2532.020996,496.416656 2527.220459,487.691132 2523.249756,485.615570 
	C2518.661377,483.217133 2514.875000,485.790344 2511.292480,488.154449 
	C2506.183838,491.526031 2505.066406,494.905029 2506.906982,499.955963 
	C2509.739990,507.729858 2513.276123,510.499359 2520.306152,509.691681 
M2556.847412,499.612122 
	C2561.732422,504.361206 2565.697266,504.430481 2572.264404,499.881531 
	C2577.387451,496.332947 2578.425293,492.938721 2575.711182,487.022858 
	C2574.553711,484.500275 2573.017578,481.998383 2571.093506,480.036133 
	C2569.874756,478.792847 2567.599365,477.917603 2565.838623,477.982086 
	C2555.007812,478.378510 2549.823486,487.643494 2555.035400,496.959747 
	C2555.439209,497.682068 2555.935303,498.353088 2556.847412,499.612122 
z"/>
<path fill="#FFFFFF" opacity="1.000000" stroke="none" 
	d="
M836.080444,597.917236 
	C848.798279,603.799438 861.724915,608.599609 873.357910,615.561584 
	C890.658386,625.915466 901.603149,641.559143 905.505005,661.678772 
	C905.726196,662.819214 905.874268,663.985779 905.923462,665.145874 
	C906.560242,680.167358 900.344055,682.232361 889.943848,680.217834 
	C865.789124,675.539185 843.275757,682.888977 821.424988,691.561401 
	C807.128235,697.235596 792.729980,703.803833 780.227844,712.601562 
	C756.941528,728.988342 743.547424,752.745239 738.167542,780.529114 
	C734.405945,799.956299 732.246155,819.689575 729.072571,839.237610 
	C728.280273,844.117737 726.231079,848.782593 724.939331,853.594604 
	C719.678406,873.193481 694.848938,882.477478 678.361694,873.924622 
	C669.744507,869.454407 661.738708,862.488037 655.517151,854.948792 
	C630.471008,824.598145 610.538330,791.150330 602.052917,752.296082 
	C599.033936,738.472351 599.683960,723.828003 598.866211,709.546387 
	C596.118469,661.562744 616.300537,621.642212 643.327942,584.235352 
	C651.356689,573.123169 661.184509,564.046631 674.674011,559.732605 
	C684.265381,556.665283 694.104736,555.587830 703.725403,558.412964 
	C747.777466,571.348755 791.725281,584.639282 836.080444,597.917236 
z"/>
<path fill="#FFFFFE" opacity="1.000000" stroke="none" 
	d="
M764.036560,401.060486 
	C764.715393,408.259277 765.830017,415.038330 765.874939,421.824432 
	C766.072021,451.643677 765.963440,481.464966 765.958862,511.285492 
	C765.956604,526.013428 758.970337,531.387817 744.469177,529.673279 
	C719.027771,526.665283 693.520996,524.050964 667.978333,522.100525 
	C638.509888,519.850342 610.203064,525.662842 583.373596,537.740906 
	C558.960266,548.731262 534.885803,560.484009 510.786041,572.156799 
	C500.132935,577.316650 493.797516,575.973206 486.813690,566.319580 
	C461.579498,531.439026 448.789215,492.584778 450.130096,449.458954 
	C450.560394,435.619812 454.918823,423.258942 468.383331,416.133362 
	C474.031158,413.144470 479.710999,412.222382 485.623749,414.843018 
	C494.892609,418.951202 504.256897,422.895050 513.277710,427.502014 
	C535.802002,439.005249 557.985046,451.244019 582.176514,459.051392 
	C588.325867,461.035980 594.686768,462.649628 601.074951,463.550354 
	C614.473877,465.439575 625.361572,460.098114 633.509033,449.795746 
	C638.852600,443.038849 643.402710,435.591614 647.772461,428.139404 
	C659.867249,407.512909 677.982666,393.702301 698.861633,383.344849 
	C710.628662,377.507507 723.621216,375.604187 736.769653,376.156189 
	C751.682678,376.782349 759.356140,383.884338 764.036560,401.060486 
z"/>
<path fill="#FFFEFC" opacity="1.000000" stroke="none" 
	d="
M1152.525024,673.406372 
	C1156.123047,665.053040 1159.525635,657.014648 1163.328491,648.030518 
	C1148.761841,648.030518 1135.799683,648.075623 1122.838135,648.014771 
	C1114.090820,647.973755 1108.674561,639.971680 1111.735474,631.765869 
	C1113.656738,626.615479 1117.164062,624.285339 1123.396362,624.270264 
	C1140.225586,624.229370 1157.055054,624.255188 1173.884399,624.254517 
	C1175.836182,624.254456 1177.787842,624.254517 1180.081543,624.254517 
	C1180.081543,613.731384 1180.081543,603.817932 1180.081543,593.096252 
	C1178.230469,593.096252 1176.474609,593.096375 1174.718750,593.096191 
	C1161.221924,593.094788 1147.724609,593.161926 1134.228394,593.073303 
	C1119.618408,592.977417 1110.408325,584.074402 1110.254028,569.440552 
	C1110.037842,548.947632 1110.047607,528.449219 1110.252808,507.956085 
	C1110.398193,493.434204 1119.660767,484.256470 1134.241821,484.208862 
	C1173.565552,484.080383 1212.890137,484.077850 1252.213867,484.206818 
	C1267.070557,484.255554 1276.044312,493.514893 1276.100464,508.429840 
	C1276.176392,528.591553 1276.179565,548.753906 1276.101562,568.915527 
	C1276.042603,584.172363 1267.111694,593.011108 1251.789551,593.081604 
	C1238.459595,593.142883 1225.129150,593.095520 1211.798950,593.096191 
	C1210.010620,593.096252 1208.222412,593.096191 1206.117310,593.096191 
	C1206.117310,603.557800 1206.117310,613.474792 1206.117310,624.254456 
	C1208.073364,624.254456 1209.987427,624.254333 1211.901489,624.254517 
	C1229.064087,624.256104 1246.227173,624.187073 1263.389282,624.289368 
	C1272.007568,624.340759 1277.191650,631.221558 1275.079712,639.455200 
	C1273.713745,644.780273 1269.844116,647.960144 1264.268799,648.001099 
	C1253.105225,648.083130 1241.940918,648.029968 1230.776855,648.032410 
	C1228.968018,648.032837 1227.159302,648.032471 1224.040283,648.032471 
	C1227.120239,655.853088 1229.464355,663.112122 1232.753662,669.914185 
	C1242.875977,690.845825 1257.579102,707.619141 1278.334229,718.733826 
	C1285.186523,722.403259 1287.049194,729.302795 1283.290894,735.636719 
	C1279.466064,742.082581 1272.673706,743.837952 1266.187744,739.837280 
	C1238.706787,722.886230 1220.816162,698.232300 1209.185669,668.587585 
	C1208.346436,666.448486 1207.592651,664.275940 1206.019775,662.132874 
	C1205.944702,663.768677 1205.805054,665.404419 1205.803955,667.040283 
	C1205.788940,691.367920 1205.841675,715.695679 1205.766846,740.023132 
	C1205.736572,749.856689 1196.680420,755.769409 1187.739746,751.917908 
	C1182.309082,749.578308 1180.371216,745.235840 1180.394531,739.492126 
	C1180.488525,716.331299 1180.432007,693.169861 1180.431152,670.008606 
	C1180.431152,668.265320 1180.431152,666.522095 1180.431152,664.778809 
	C1180.045410,664.711365 1179.659668,664.643921 1179.274048,664.576477 
	C1178.461182,666.664734 1177.672363,668.762695 1176.831909,670.839783 
	C1165.223389,699.528137 1147.849976,723.563965 1120.946289,739.852966 
	C1113.834595,744.158691 1107.403198,742.601868 1103.489990,735.843201 
	C1099.706543,729.308716 1101.637329,722.319946 1108.487671,718.454712 
	C1127.428345,707.767944 1141.765137,692.601196 1152.525024,673.406372 
M1154.513672,507.983582 
	C1151.683228,507.984161 1148.852661,507.969482 1146.022339,507.988312 
	C1138.703979,508.036987 1136.439453,510.195831 1136.408325,517.495178 
	C1136.348145,531.646912 1136.349609,545.799194 1136.410156,559.950928 
	C1136.441284,567.228271 1138.643799,569.357300 1146.088867,569.364075 
	C1177.556152,569.392517 1209.023438,569.395081 1240.490723,569.363464 
	C1247.875977,569.356018 1250.024902,567.175598 1250.037598,559.887939 
	C1250.062134,545.902466 1250.059937,531.917053 1250.040039,517.931580 
	C1250.028809,510.065735 1247.913086,507.990784 1239.921265,507.987885 
	C1211.783813,507.977722 1183.646484,507.983704 1154.513672,507.983582 
z"/>
<path fill="#FFFFFE" opacity="1.000000" stroke="none" 
	d="
M406.102783,731.675415 
	C406.138641,721.540710 408.258972,712.166260 413.278992,704.016663 
	C442.704224,656.246826 478.409546,614.579712 529.305786,588.406799 
	C553.318359,576.058533 578.862732,568.181519 605.747009,564.887939 
	C610.368591,564.321716 614.438721,564.963928 617.152710,569.186890 
	C619.993469,573.607239 618.635925,577.611450 616.117798,581.754028 
	C600.203308,607.934570 584.185059,634.056885 568.700745,660.491150 
	C564.111938,668.325073 560.707520,676.944153 557.535950,685.491211 
	C554.381470,693.992310 554.686951,702.794067 557.758240,711.452759 
	C559.426147,716.154968 560.938538,720.924377 562.259644,725.735229 
	C566.171875,739.982056 557.421875,752.983398 542.784241,753.768433 
	C508.508636,755.606750 474.211884,757.441589 439.884949,754.887390 
	C435.578888,754.566895 431.283936,753.890259 427.029144,753.126221 
	C413.393951,750.677795 408.667114,745.866821 406.102783,731.675415 
z"/>
<path fill="#FFFEFC" opacity="1.000000" stroke="none" 
	d="
M2084.496582,588.626282 
	C2105.294189,582.044128 2126.529053,578.226990 2148.409668,579.211182 
	C2167.302979,580.061035 2185.458740,584.030701 2201.471191,594.651550 
	C2226.717041,611.396606 2235.562012,636.019470 2233.403320,665.061584 
	C2230.993896,697.473694 2211.957275,718.216980 2183.995850,731.953247 
	C2161.071289,743.215149 2136.403076,747.748840 2111.208740,749.922974 
	C2104.244141,750.523987 2097.245850,750.798706 2090.256348,751.032349 
	C2080.750000,751.350098 2077.114746,747.948914 2076.312744,738.304688 
	C2075.584717,729.545593 2079.373291,725.176819 2088.075928,724.820923 
	C2110.609375,723.899170 2132.930664,721.666992 2154.402588,714.156860 
	C2168.899658,709.086365 2181.911133,701.817993 2192.513672,690.325134 
	C2211.943359,669.263916 2210.322510,620.137085 2167.728760,606.936218 
	C2141.960693,598.950195 2116.011963,599.598633 2090.350586,606.599915 
	C2075.160156,610.744324 2060.415771,616.603577 2045.628296,622.114014 
	C2037.871338,625.004578 2032.780273,623.674133 2028.500854,616.349609 
	C2024.160400,608.920532 2025.187012,603.930176 2032.145264,598.763489 
	C2065.717773,573.834534 2099.296631,548.913635 2132.860107,523.972412 
	C2134.399170,522.828613 2135.813232,521.515930 2137.285645,520.281921 
	C2137.206787,519.780396 2137.127930,519.278870 2137.049072,518.777344 
	C2134.752686,518.550110 2132.456787,518.126648 2130.160156,518.124634 
	C2085.832031,518.085266 2041.503784,518.063843 1997.175659,518.139343 
	C1992.275513,518.147644 1987.593018,517.967102 1985.377075,512.744751 
	C1982.842651,506.771576 1982.399780,500.479980 1986.583374,495.220123 
	C1988.259155,493.113281 1991.885498,491.820343 1994.754028,491.553528 
	C2000.702026,491.000183 2006.737183,491.378693 2012.736450,491.378662 
	C2066.730225,491.378326 2120.723877,491.371429 2174.717773,491.386780 
	C2183.667969,491.389343 2187.599121,494.520142 2189.514404,502.992310 
	C2190.968506,509.423126 2189.524170,513.133606 2183.895020,517.088867 
	C2150.639648,540.456482 2117.373291,563.808777 2083.658691,587.587036 
	C2083.636963,588.213989 2084.066650,588.420105 2084.496582,588.626282 
z"/>
<path fill="#FFFEFD" opacity="1.000000" stroke="none" 
	d="
M1554.996094,749.845825 
	C1548.999390,749.843689 1543.499268,749.944458 1538.004639,749.810852 
	C1532.381714,749.674194 1528.500854,745.650391 1528.582642,740.321594 
	C1528.661377,735.193848 1532.345825,731.563232 1537.994995,731.429443 
	C1544.655273,731.271667 1551.325195,731.501038 1557.984863,731.328613 
	C1565.152954,731.142944 1571.010498,726.280396 1571.696777,719.273926 
	C1572.273438,713.384583 1571.815308,707.393982 1571.815308,701.188965 
	C1509.879150,701.188965 1448.307983,701.188965 1386.002930,701.188965 
	C1386.002930,707.664673 1386.017944,714.093079 1385.999268,720.521423 
	C1385.974609,728.978577 1381.042603,734.040649 1372.853271,734.049561 
	C1364.591187,734.058533 1359.636353,729.125549 1359.626099,720.619812 
	C1359.586182,687.633301 1359.535156,654.646484 1359.639282,621.660339 
	C1359.690674,605.387634 1368.453369,596.856506 1384.842896,596.849792 
	C1447.484009,596.823914 1510.125122,596.825317 1572.766235,596.849426 
	C1589.377075,596.855774 1598.031006,605.509949 1598.045532,622.072266 
	C1598.072266,652.393188 1598.065552,682.714172 1598.049316,713.035095 
	C1598.036255,737.326477 1585.423218,749.839172 1560.992188,749.845825 
	C1559.159790,749.846313 1557.327271,749.845825 1554.996094,749.845825 
M1426.500000,658.919922 
	C1413.089600,658.919922 1399.679199,658.919922 1386.332397,658.919922 
	C1386.332397,667.318604 1386.332397,674.900513 1386.332397,682.510498 
	C1448.352661,682.510498 1510.040161,682.510498 1571.671509,682.510498 
	C1571.671509,674.508301 1571.671509,666.918945 1571.671509,658.919922 
	C1523.397095,658.919922 1475.448608,658.919922 1426.500000,658.919922 
M1571.998169,625.831299 
	C1571.688232,618.621643 1569.628906,616.646423 1562.030762,616.643311 
	C1506.562378,616.620667 1451.094116,616.629333 1395.625732,616.636475 
	C1394.462036,616.636597 1393.284058,616.640503 1392.137085,616.808533 
	C1388.519775,617.338318 1386.300659,619.597046 1386.126709,623.105286 
	C1385.841064,628.866577 1386.049316,634.652283 1386.049316,640.551392 
	C1448.282959,640.551392 1509.962280,640.551392 1571.998657,640.551392 
	C1571.998657,635.711121 1571.998657,631.235657 1571.998169,625.831299 
z"/>
<path fill="#FFFFFE" opacity="1.000000" stroke="none" 
	d="
M2507.785156,589.000000 
	C2507.725586,576.506714 2507.669189,564.513428 2507.587158,552.520264 
	C2507.585205,552.235168 2507.297363,551.952087 2506.829834,551.091736 
	C2505.355225,551.091736 2503.572266,551.091736 2501.789307,551.091736 
	C2481.959473,551.091248 2462.129639,551.105347 2442.299805,551.083008 
	C2434.365479,551.074097 2430.707764,546.830750 2430.704834,537.754456 
	C2430.702148,528.913513 2434.240234,524.856323 2442.119385,524.852112 
	C2481.279053,524.831421 2520.438721,524.828552 2559.598389,524.853027 
	C2567.510498,524.857971 2571.140381,528.965698 2571.156738,537.707825 
	C2571.173584,546.748535 2567.451172,551.046875 2559.509033,551.084656 
	C2552.843506,551.116333 2546.171387,551.273987 2539.515381,551.021423 
	C2535.744141,550.878357 2534.270752,551.844482 2534.297119,555.958557 
	C2534.467285,582.619385 2534.430420,609.282043 2534.323242,635.943542 
	C2534.310303,639.118347 2535.346924,640.658997 2538.386230,641.704895 
	C2547.979492,645.006226 2557.434326,648.707703 2566.999512,652.093811 
	C2572.204346,653.936218 2574.994141,657.398254 2574.872803,662.907532 
	C2574.740234,668.928345 2573.681885,674.913330 2567.639160,677.725952 
	C2565.320801,678.805054 2561.735107,678.407959 2559.167236,677.473389 
	C2551.109619,674.540710 2543.261719,671.032349 2534.868652,667.554810 
	C2534.248291,675.192932 2533.972412,681.989441 2533.104004,688.709473 
	C2528.614990,723.447876 2503.967041,746.735718 2469.058838,750.094666 
	C2450.833252,751.848389 2433.100830,750.880676 2416.205322,743.326965 
	C2392.571533,732.760864 2378.923584,711.309570 2380.242920,687.280151 
	C2381.652344,661.614319 2397.592529,641.258240 2422.623535,632.954468 
	C2438.437256,627.708435 2454.687744,627.117615 2471.034912,628.597534 
	C2481.958496,629.586487 2492.801025,631.464233 2503.685303,632.903870 
	C2504.805908,633.052063 2505.962646,632.923828 2507.785400,632.923828 
	C2507.785400,618.376709 2507.785400,603.938354 2507.785156,589.000000 
M2411.935303,708.503723 
	C2416.709229,714.578003 2422.944336,718.565613 2430.153809,721.083679 
	C2444.248779,726.007019 2458.586426,726.036926 2472.911865,722.494080 
	C2490.323975,718.187927 2501.528809,707.134521 2505.348145,689.635498 
	C2507.137451,681.438416 2506.975586,672.822449 2507.817383,664.408264 
	C2508.162109,660.962402 2507.063965,659.328247 2503.385742,658.830505 
	C2490.876953,657.137878 2478.462646,654.592773 2465.915039,653.381531 
	C2452.288330,652.066162 2438.625000,652.301270 2425.908447,658.764343 
	C2406.430908,668.663330 2400.019531,690.438965 2411.935303,708.503723 
z"/>
<path fill="#FFFEFD" opacity="1.000000" stroke="none" 
	d="
M1679.598145,526.658630 
	C1682.635742,525.229065 1685.425659,523.161133 1688.239014,523.128784 
	C1711.231079,522.864624 1734.227539,522.958618 1757.222656,522.993286 
	C1764.479004,523.004211 1768.797974,526.932617 1771.183716,535.456238 
	C1773.377808,543.294495 1771.874634,547.828552 1765.489258,551.662048 
	C1736.696655,568.947998 1717.463013,593.471619 1709.551025,626.292908 
	C1698.466675,672.274170 1726.996704,712.539551 1774.113525,717.916992 
	C1794.049805,720.192322 1813.417847,718.487183 1831.573608,709.379883 
	C1857.494019,696.377502 1871.116211,674.173462 1875.687988,646.488831 
	C1877.921753,632.962097 1877.496826,618.972351 1877.932739,605.181335 
	C1878.216675,596.200928 1882.687622,590.168884 1890.130249,585.978027 
	C1894.129639,583.726013 1897.973755,584.093384 1901.698120,587.118896 
	C1916.051392,598.778992 1930.521606,610.294983 1944.905273,621.917969 
	C1949.449219,625.589783 1950.212646,629.853333 1947.650513,635.778381 
	C1944.821655,642.320068 1939.118896,646.889771 1934.281494,645.945679 
	C1932.309448,645.560730 1930.358643,644.208740 1928.771729,642.857971 
	C1922.174927,637.243408 1915.802856,631.362610 1909.149536,625.818115 
	C1907.685181,624.598022 1905.407593,624.353943 1903.504517,623.660339 
	C1902.935303,625.480042 1901.867065,627.301392 1901.873169,629.119141 
	C1901.942017,649.713867 1898.820679,669.594849 1889.167725,688.075439 
	C1872.849609,719.316589 1846.460938,736.650818 1812.387817,742.774719 
	C1788.334106,747.097900 1764.551514,745.746521 1741.735718,736.200439 
	C1693.708496,716.106201 1670.789307,669.271851 1684.377563,619.020264 
	C1691.034546,594.401245 1704.065796,573.665649 1723.259033,556.833740 
	C1724.010620,556.174744 1724.951050,555.637085 1725.468384,554.828430 
	C1726.135498,553.785583 1726.464600,552.526428 1726.939209,551.360474 
	C1725.766113,550.906616 1724.597290,550.071472 1723.419434,550.058777 
	C1713.256104,549.949219 1703.091064,549.984802 1692.926636,549.982910 
	C1678.008911,549.980042 1672.437012,540.527100 1679.598145,526.658630 
z"/>
<path fill="#FFFEFD" opacity="1.000000" stroke="none" 
	d="
M1564.218506,522.839172 
	C1572.762817,520.720703 1576.804077,522.254761 1581.071411,529.062195 
	C1589.560913,542.605347 1598.038574,556.155945 1606.480957,569.728455 
	C1610.573730,576.308167 1609.624268,581.245789 1603.646851,585.091003 
	C1597.573120,588.998108 1590.132935,587.903687 1586.395874,582.284912 
	C1582.067017,575.776611 1577.988770,569.101685 1573.560547,562.118896 
	C1570.406372,563.096252 1567.298584,564.090637 1564.172363,565.022949 
	C1541.853882,571.679382 1518.899170,575.023438 1495.765259,575.809448 
	C1448.826660,577.404175 1401.855103,578.041443 1354.895630,579.001892 
	C1347.001831,579.163330 1342.524170,574.970825 1342.568604,567.934082 
	C1342.611328,561.162537 1347.091919,557.127991 1354.697388,557.094238 
	C1362.527588,557.059570 1370.359863,557.168945 1378.186890,557.009277 
	C1379.629517,556.979858 1381.753052,556.388184 1382.376831,555.346313 
	C1389.620483,543.245972 1396.636353,531.009216 1404.227905,517.920227 
	C1394.770508,517.920227 1386.202637,518.012695 1377.637817,517.893860 
	C1369.312256,517.778442 1364.329590,510.682526 1366.835327,502.747009 
	C1368.489746,497.507202 1372.031250,495.041687 1378.217651,495.035797 
	C1405.040894,495.010162 1431.864014,495.024414 1458.687256,495.024170 
	C1460.660034,495.024170 1462.632812,495.024170 1464.848145,495.024170 
	C1466.452881,489.084595 1463.206421,481.677094 1470.038208,478.081573 
	C1473.138306,476.450012 1476.968628,475.335388 1480.429077,475.428070 
	C1489.461792,475.670105 1491.493286,479.020569 1493.327759,495.024170 
	C1495.171143,495.024170 1497.104004,495.024200 1499.036987,495.024200 
	C1525.693604,495.024261 1552.350098,495.015015 1579.006714,495.030029 
	C1587.029175,495.034546 1591.791870,499.292816 1591.827271,506.403931 
	C1591.862549,513.502197 1587.045410,517.913025 1579.114014,517.915588 
	C1532.131714,517.931030 1485.149292,517.975098 1438.167358,517.827820 
	C1434.298340,517.815735 1432.234497,518.998291 1430.375000,522.360229 
	C1424.105835,533.694397 1417.471802,544.826721 1410.291504,557.219666 
	C1461.701416,556.184753 1512.281494,558.039795 1560.869141,544.363403 
	C1559.608154,539.083313 1557.640259,534.316284 1557.703003,529.576294 
	C1557.732544,527.352173 1561.675415,525.179871 1564.218506,522.839172 
z"/>
<path fill="#FFFEFD" opacity="1.000000" stroke="none" 
	d="
M1081.081787,526.207275 
	C1078.936035,548.775940 1072.663452,569.683716 1062.120605,590.018738 
	C1071.934570,591.827576 1073.052368,598.428162 1072.994873,606.596558 
	C1072.731812,643.923462 1072.898682,681.253174 1072.862915,718.581909 
	C1072.854858,726.913391 1067.422241,731.849487 1059.121704,731.291992 
	C1051.740112,730.796265 1047.634033,726.306030 1047.624268,718.398621 
	C1047.583618,685.402710 1047.605957,652.406799 1047.605103,619.410889 
	C1047.604980,617.440552 1047.605103,615.470276 1047.605103,613.499939 
	C1047.246460,613.306152 1046.887939,613.112366 1046.529297,612.918518 
	C1045.290039,614.297058 1044.167603,615.807434 1042.788818,617.028320 
	C1039.323853,620.096436 1036.059448,623.569458 1032.130371,625.891113 
	C1026.932983,628.962280 1020.049988,626.880920 1016.552551,622.073181 
	C1013.101501,617.329163 1013.442383,610.213806 1017.722046,606.003296 
	C1043.552368,580.590271 1053.322876,548.519226 1056.008423,513.579041 
	C1056.843872,502.708069 1064.748169,496.630341 1074.163818,500.272308 
	C1079.305298,502.261047 1082.107788,506.205292 1081.968994,511.797943 
	C1081.853516,516.453491 1081.410156,521.100952 1081.081787,526.207275 
z"/>
<path fill="#FFFFFF" opacity="1.000000" stroke="none" 
	d="
M2341.532471,584.000122 
	C2341.532471,619.963928 2341.497803,655.427795 2341.572998,690.891418 
	C2341.583740,695.843384 2341.109863,700.313538 2335.772705,702.410706 
	C2329.609131,704.832581 2323.469971,704.728149 2318.453613,700.214966 
	C2316.705078,698.641907 2315.923584,695.216064 2315.900146,692.625610 
	C2315.704834,670.816284 2315.788330,649.004517 2315.788086,627.193481 
	C2315.787842,584.403870 2315.842773,541.614075 2315.718994,498.824829 
	C2315.703369,493.508850 2316.611816,489.134888 2322.156006,487.257843 
	C2328.161133,485.224731 2334.303955,485.051788 2338.902344,489.898071 
	C2340.763672,491.859833 2341.405029,495.631836 2341.423828,498.587646 
	C2341.604248,526.890869 2341.532471,555.195740 2341.532471,584.000122 
z"/>
<path fill="#FFFEFB" opacity="1.000000" stroke="none" 
	d="
M2519.954102,509.794861 
	C2513.276123,510.499359 2509.739990,507.729858 2506.906982,499.955963 
	C2505.066406,494.905029 2506.183838,491.526031 2511.292480,488.154449 
	C2514.875000,485.790344 2518.661377,483.217133 2523.249756,485.615570 
	C2527.220459,487.691132 2532.020996,496.416656 2531.132812,500.419739 
	C2529.884277,506.046326 2524.853516,507.683594 2519.954102,509.794861 
z"/>
<path fill="#FFFEFC" opacity="1.000000" stroke="none" 
	d="
M2556.617920,499.330017 
	C2555.935303,498.353088 2555.439209,497.682068 2555.035400,496.959747 
	C2549.823486,487.643494 2555.007812,478.378510 2565.838623,477.982086 
	C2567.599365,477.917603 2569.874756,478.792847 2571.093506,480.036133 
	C2573.017578,481.998383 2574.553711,484.500275 2575.711182,487.022858 
	C2578.425293,492.938721 2577.387451,496.332947 2572.264404,499.881531 
	C2565.697266,504.430481 2561.732422,504.361206 2556.617920,499.330017 
z"/>
<path fill="#FEC32E" opacity="1.000000" stroke="none" 
	d="
M1155.011353,507.983582 
	C1183.646484,507.983704 1211.783813,507.977722 1239.921265,507.987885 
	C1247.913086,507.990784 1250.028809,510.065735 1250.040039,517.931580 
	C1250.059937,531.917053 1250.062134,545.902466 1250.037598,559.887939 
	C1250.024902,567.175598 1247.875977,569.356018 1240.490723,569.363464 
	C1209.023438,569.395081 1177.556152,569.392517 1146.088867,569.364075 
	C1138.643799,569.357300 1136.441284,567.228271 1136.410156,559.950928 
	C1136.349609,545.799194 1136.348145,531.646912 1136.408325,517.495178 
	C1136.439453,510.195831 1138.703979,508.036987 1146.022339,507.988312 
	C1148.852661,507.969482 1151.683228,507.984161 1155.011353,507.983582 
z"/>
<path fill="#FEC32D" opacity="1.000000" stroke="none" 
	d="
M2084.304688,588.392822 
	C2084.066650,588.420105 2083.636963,588.213989 2083.457520,587.859497 
	C2083.842529,587.860596 2083.977539,588.010010 2084.304688,588.392822 
z"/>
<path fill="#FEC32E" opacity="1.000000" stroke="none" 
	d="
M1427.000000,658.919922 
	C1475.448608,658.919922 1523.397095,658.919922 1571.671509,658.919922 
	C1571.671509,666.918945 1571.671509,674.508301 1571.671509,682.510498 
	C1510.040161,682.510498 1448.352661,682.510498 1386.332397,682.510498 
	C1386.332397,674.900513 1386.332397,667.318604 1386.332397,658.919922 
	C1399.679199,658.919922 1413.089600,658.919922 1427.000000,658.919922 
z"/>
<path fill="#FEC32E" opacity="1.000000" stroke="none" 
	d="
M1571.998413,626.295776 
	C1571.998657,631.235657 1571.998657,635.711121 1571.998657,640.551392 
	C1509.962280,640.551392 1448.282959,640.551392 1386.049316,640.551392 
	C1386.049316,634.652283 1385.841064,628.866577 1386.126709,623.105286 
	C1386.300659,619.597046 1388.519775,617.338318 1392.137085,616.808533 
	C1393.284058,616.640503 1394.462036,616.636597 1395.625732,616.636475 
	C1451.094116,616.629333 1506.562378,616.620667 1562.030762,616.643311 
	C1569.628906,616.646423 1571.688232,618.621643 1571.998413,626.295776 
z"/>
<path fill="#FEC32E" opacity="1.000000" stroke="none" 
	d="
M2411.707275,708.223022 
	C2400.019531,690.438965 2406.430908,668.663330 2425.908447,658.764343 
	C2438.625000,652.301270 2452.288330,652.066162 2465.915039,653.381531 
	C2478.462646,654.592773 2490.876953,657.137878 2503.385742,658.830505 
	C2507.063965,659.328247 2508.162109,660.962402 2507.817383,664.408264 
	C2506.975586,672.822449 2507.137451,681.438416 2505.348145,689.635498 
	C2501.528809,707.134521 2490.323975,718.187927 2472.911865,722.494080 
	C2458.586426,726.036926 2444.248779,726.007019 2430.153809,721.083679 
	C2422.944336,718.565613 2416.709229,714.578003 2411.707275,708.223022 
z"/>
</svg>