<svg xmlns="http://www.w3.org/2000/svg" width="325" height="99" viewBox="0 0 325 99">
  <g id="site01_sp" transform="translate(-14.5 -127.5)">
    <rect id="Mask" width="325" height="99" rx="10" transform="translate(14.5 127.5)" fill="#fff"/>
    <g id="logo" transform="translate(112.504 156.508)">
      <g id="グループ_3" data-name="グループ 3" transform="translate(24.147 0.151)">
        <g id="グループ_2" data-name="グループ 2" transform="translate(0 0)">
          <path id="パス_1" data-name="パス 1" d="M237.664,308.561l-1.893-1.865a2.177,2.177,0,0,0-1.338-1.016,4.364,4.364,0,0,1-.227-.637,2.884,2.884,0,1,0-1.059.065,2.857,2.857,0,0,1-.2.529,2.164,2.164,0,0,0-1.579,1.212l-1.658,1.711a.519.519,0,0,0-.008.686l1.7,2.218a1.522,1.522,0,0,1-.152.122.86.86,0,0,0,.671,1.558l-1.878,9.489c-2.9-.461-1.907,1.968-1.907,1.968h3.9a1.847,1.847,0,0,0,.036-1.308l.909-9.442a2.966,2.966,0,0,0,.795.089,1.425,1.425,0,0,0,.336-.042l-.489,9.3-.012,0a1.833,1.833,0,0,0,0,1.4h3.9s.993-2.416-1.883-1.972l-.251-9.5a.6.6,0,0,0,.844-.862,1.948,1.948,0,0,1-.375-.534l1.857-2.647a.432.432,0,0,0-.027-.525Zm-6.07-.247c.034.045.07.088.109.13a13.015,13.015,0,0,0,.446,1.581.073.073,0,0,0,.007.022l-.026.085c-.021.077-.054.19-.1.32l-.983-1.541Zm3.944,2.143c.04-.276.082-.557.13-.838a6.4,6.4,0,0,0,.116-1.445l.7.71Z" transform="translate(-227.966 -299.362)" fill="#ed8aa5"/>
          <path id="パス_2" data-name="パス 2" d="M245.917,313.54a1.942,1.942,0,0,1-1.554-.779.153.153,0,1,1,.242-.184,1.643,1.643,0,0,0,1.711.61,1.681,1.681,0,0,0,1.272-1.383.155.155,0,0,1,.177-.123.152.152,0,0,1,.122.177,2,2,0,0,1-1.971,1.681Z" transform="translate(-240.43 -308.745)" fill="#fff"/>
          <g id="グループ_1" data-name="グループ 1" transform="translate(4.08 1.237)">
            <ellipse id="楕円形_1" data-name="楕円形 1" cx="0.303" cy="0.513" rx="0.303" ry="0.513" transform="translate(0 0.515) rotate(-4.405)" fill="#fff"/>
            <ellipse id="楕円形_2" data-name="楕円形 2" cx="0.303" cy="0.513" rx="0.303" ry="0.513" transform="translate(1.738 0.215) rotate(-20.791)" fill="#fff"/>
          </g>
        </g>
        <path id="パス_3" data-name="パス 3" d="M254.219,331.006l-.016-.032-.03-.044,0,0c-.011-.012-.021-.025-.032-.037a.455.455,0,0,0-.3-.142.34.34,0,0,0-.3.125.5.5,0,0,0-.1.195v.009h0l-.006-.01a.5.5,0,0,0-.073-.08.377.377,0,0,0-.344-.1.417.417,0,0,0-.264.183.39.39,0,0,0-.065.287.612.612,0,0,0,.084.224.73.73,0,0,0,.172.19,1.733,1.733,0,0,0,.214.14c.081.047.162.092.243.14a1.322,1.322,0,0,1,.237.171l.028.027h0c.016-.031.031-.062.048-.091a1.9,1.9,0,0,1,.175-.237c.059-.073.118-.145.177-.219a1.256,1.256,0,0,0,.134-.205.6.6,0,0,0,.07-.236.489.489,0,0,0-.055-.256Z" transform="translate(-246.79 -323.266)" fill="#fff"/>
      </g>
      <g id="グループ_6" data-name="グループ 6" transform="translate(-0.004 -0.008)">
        <g id="グループ_4" data-name="グループ 4">
          <path id="パス_4" data-name="パス 4" d="M128.739,298.723c-.96,0-2.078.649-2.078,1.494v22.462c0,.841,1.116,1.494,2.078,1.494s2.1-.649,2.1-1.494V300.217C130.842,299.376,129.712,298.723,128.739,298.723Z" transform="translate(-126.661 -298.718)" fill="#232323"/>
          <path id="パス_5" data-name="パス 5" d="M163.16,298.72a1.585,1.585,0,0,0-1.7,1.493v8.9h-9.92a1.63,1.63,0,0,0-1.464,1.728,1.609,1.609,0,0,0,1.464,1.728h9.92v10.105a1.585,1.585,0,0,0,1.7,1.494,1.6,1.6,0,0,0,1.729-1.494V300.214a1.6,1.6,0,0,0-1.729-1.493Z" transform="translate(-144.493 -298.715)" fill="#232323"/>
        </g>
        <g id="グループ_5" data-name="グループ 5" transform="translate(37.249 3.776)">
          <path id="パス_6" data-name="パス 6" d="M352.532,336.753h-.8c-4.387,0-6.9,2.317-6.9,6.356v3.457c0,4.126,2.387,6.307,6.9,6.307h.8c4.42,0,6.853-2.24,6.853-6.307v-3.457C359.385,339.129,356.822,336.753,352.532,336.753Zm-4.745,9.614v-3.059c0-2.468,1.323-3.617,4.164-3.617h.995c2.549,0,3.451.947,3.451,3.617v3.059c0,2.686-.871,3.592-3.451,3.592h-.995c-2.8,0-4.164-1.175-4.164-3.592Z" transform="translate(-330.067 -331.458)" fill="#232323"/>
          <path id="パス_7" data-name="パス 7" d="M426.846,343.289c-5.049-.078-5.438-.755-5.438-1.7v-.5c0-.871.447-1.677,3.692-1.677h4.662a1.391,1.391,0,0,0,0-2.764h-4.836c-4.366,0-6.58,1.429-6.58,4.242v.771c0,2.934,2.072,4.043,7.647,4.091,4.32.025,4.54.852,4.54,2.2v.325c0,.974-.282,1.777-3.742,1.777h-2.536c-3.025,0-3.161-.9-3.292-1.762-.1-.642-.23-1.521-1.658-1.521a1.3,1.3,0,0,0-1.432,1.309v.082c.224,2.52.829,4.606,5.981,4.606h3.208c4.411,0,6.555-1.42,6.555-4.342v-.519C433.619,344.569,431.846,343.361,426.846,343.289Z" transform="translate(-385.703 -331.379)" fill="#232323"/>
          <path id="パス_8" data-name="パス 8" d="M502.873,319.869h-1.12a6.186,6.186,0,0,0-4.014,1.359V315.9a1.494,1.494,0,0,0-2.963,0v19.076a1.5,1.5,0,0,0,2.963,0V326c0-1.577,1.18-3.17,3.816-3.17H502.7c2.429,0,3.766,1.267,3.766,3.568v8.58a1.391,1.391,0,0,0,1.481,1.283,1.408,1.408,0,0,0,1.481-1.283V326.25C509.427,322.132,507.1,319.869,502.873,319.869Z" transform="translate(-444.275 -314.599)" fill="#232323"/>
          <path id="パス_9" data-name="パス 9" d="M574.325,336.647a1.408,1.408,0,0,0-1.481,1.282v13.827a1.391,1.391,0,0,0,1.481,1.283,1.374,1.374,0,0,0,1.481-1.283V337.93a1.391,1.391,0,0,0-1.481-1.283Z" transform="translate(-503.734 -331.377)" fill="#232323"/>
          <circle id="楕円形_3" data-name="楕円形 3" cx="2.055" cy="2.055" r="2.055" transform="translate(68.536 0.089)" fill="#232323"/>
          <path id="パス_10" data-name="パス 10" d="M615.492,349.734a.379.379,0,0,0-.065-.006H615.2c-.584,0-.707-.655-.707-1.205v-6.886c0-3.357-2.234-4.988-6.828-4.988h-3.805a1.364,1.364,0,0,0-1.234,1.406,1.329,1.329,0,0,0,1.234,1.382h3.808c3.229,0,3.89.879,3.89,2.2v6.3c-.51,1.393-1.883,2.042-4.313,2.042h-1.666c-2.768,0-3-1.135-3-2.2V347.3c0-1.137.351-2.3,2.95-2.3H609.5a1.254,1.254,0,0,0,1.158-1.307,1.226,1.226,0,0,0-1.158-1.257h-3.871c-5.21,0-5.987,3.047-5.987,4.864v.621c0,3.3,1.792,4.839,5.639,4.839h2.164a6.843,6.843,0,0,0,4.759-1.5,2.957,2.957,0,0,0,2.578,1.4h.472a1.34,1.34,0,0,0,1.308-1.457A1.3,1.3,0,0,0,615.492,349.734Z" transform="translate(-524.141 -331.379)" fill="#232323"/>
          <path id="パス_11" data-name="パス 11" d="M291.574,327.159h2.772a1.423,1.423,0,0,0,1.283-1.507,1.408,1.408,0,0,0-1.282-1.481h-5.5v-2.622a1.408,1.408,0,0,0-1.482-1.282,1.39,1.39,0,0,0-1.481,1.282v2.622h-1.677a1.408,1.408,0,0,0-1.283,1.481,1.423,1.423,0,0,0,1.283,1.507h1.677v8.636c0,3.194,1.729,4.814,5.137,4.814h3.009a1.4,1.4,0,0,0,1.307-1.457,1.471,1.471,0,0,0-1.307-1.506h-2.611c-1.9,0-2.572-.6-2.572-2.3v-8.188Z" transform="translate(-282.926 -318.901)" fill="#232323"/>
        </g>
      </g>
      <g id="グループ_7" data-name="グループ 7" transform="translate(49.104 0.3)">
        <path id="パス_12" data-name="パス 12" d="M337.19,304.4h-2.875c-.538,0-.7-.164-.7-.7v-1.5h2.815a.446.446,0,0,0,0-.89h-2.815v-.788a.455.455,0,1,0-.909,0v3.2a1.429,1.429,0,0,0,1.571,1.571h2.913a.449.449,0,0,0,0-.9Z" transform="translate(-332.696 -300.07)" fill="#232323"/>
        <path id="パス_13" data-name="パス 13" d="M376.922,302.238h-2.847v-1.7a.455.455,0,1,0-.909,0V305.1a.455.455,0,1,0,.909,0v-1.976h2.847a.444.444,0,0,0,0-.885Z" transform="translate(-363.514 -300.085)" fill="#232323"/>
        <path id="パス_14" data-name="パス 14" d="M411.446,309.71l1.693.183h.023c.107,0,.359-.038.4-.416v-.049a.377.377,0,0,0-.365-.4l-1.717-.19c-.094,0-.4.034-.4.469a.373.373,0,0,0,.366.4Z" transform="translate(-392.39 -306.729)" fill="#232323"/>
        <path id="パス_15" data-name="パス 15" d="M411.446,302.986l1.693.182h.023c.107,0,.36-.039.4-.421V302.7a.378.378,0,0,0-.366-.4l-1.716-.179c-.195,0-.4.123-.4.469a.375.375,0,0,0,.366.4Z" transform="translate(-392.39 -301.612)" fill="#232323"/>
        <path id="パス_16" data-name="パス 16" d="M415.078,307.167a.394.394,0,0,0-.448.416c0,1.322-.276,2.2-1.623,2.2h-2.04a.455.455,0,0,0,0,.9h2.048c2.517,0,2.517-2.338,2.517-3.1a.4.4,0,0,0-.453-.416Z" transform="translate(-391.989 -305.457)" fill="#232323"/>
        <path id="パス_17" data-name="パス 17" d="M454.967,300.583h-3.241a.455.455,0,0,0,0,.9h3.241a.756.756,0,0,1,.772.772.747.747,0,0,1-.772.773h-.786l.06-.195.01-.065a.462.462,0,0,0-.475-.432.4.4,0,0,0-.4.276l-.13.416h0l-.314,1.019-.037.118h0l-.343,1.113-.01.065a.462.462,0,0,0,.475.432.4.4,0,0,0,.395-.276l.234-.751h0l.257-.832h1.077a1.623,1.623,0,0,0,1.657-1.663,1.655,1.655,0,0,0-1.672-1.672Z" transform="translate(-423.039 -300.443)" fill="#232323"/>
      </g>
      <g id="グループ_10" data-name="グループ 10" transform="translate(0.436 29.095)">
        <g id="グループ_8" data-name="グループ 8" transform="translate(0)">
          <path id="パス_18" data-name="パス 18" d="M151.867,428.623c0-.686-.455-.788-.725-.788h-2.71v-.794H150.3a1.123,1.123,0,0,0,1.186-1.186v-2.909a1.123,1.123,0,0,0-1.186-1.186h-5.333a1.123,1.123,0,0,0-1.186,1.186v2.909a1.123,1.123,0,0,0,1.186,1.186h1.864v.794H144.1c-.266,0-.714.1-.714.788,0,.642.39.779.714.779h1.313l-2.031,2.843a.75.75,0,0,0-.158.431c0,.436.54.789.892.789a.664.664,0,0,0,.54-.318l2.17-3.031v2.838c0,.331.139.725.8.725.7,0,.8-.455.8-.725V429.4h2.71a.677.677,0,0,0,.723-.775Zm-1.987-5.312v2.175H145.4v-2.175Z" transform="translate(-139.717 -421.528)" fill="#ed8aa5"/>
          <path id="パス_19" data-name="パス 19" d="M131.015,420.9a.707.707,0,0,0-.7.556L128.557,427a.817.817,0,0,0-.06.3c0,.5.577.738.968.738a.656.656,0,0,0,.365-.1v4.351c0,.342.142.75.814.75s.827-.408.827-.75v-5.524c0-.285-.108-.763-.827-.763h-.037l1.31-4.091a.909.909,0,0,0,.053-.286C131.97,421.149,131.49,420.9,131.015,420.9Z" transform="translate(-128.497 -420.875)" fill="#ed8aa5"/>
          <path id="パス_20" data-name="パス 20" d="M167.222,454.747a.679.679,0,0,0-.532-.3.974.974,0,0,0-.879.8.755.755,0,0,0,.163.438l1.784,2.375a.68.68,0,0,0,.533.3.957.957,0,0,0,.879-.8.754.754,0,0,0-.163-.438Z" transform="translate(-156.917 -446.428)" fill="#ed8aa5"/>
          <path id="パス_21" data-name="パス 21" d="M221.792,422.261a.649.649,0,0,0-.686-.737H216.55c-.008-.287-.134-.731-.827-.731-.662,0-.818.39-.827.731h-4.582c-.251,0-.673.1-.673.737,0,.61.366.738.673.738h1.59l-1.173,1.2-.292.018a.627.627,0,0,0-.644.686.862.862,0,0,0,.214.664.61.61,0,0,0,.479.149l9.275-.615.253.487a.654.654,0,0,0,.6.41c.3,0,.891-.251.891-.714a.8.8,0,0,0-.1-.355l-.952-1.878c-.01-.019-.021-.038-.032-.055h.68C221.363,423,221.792,422.9,221.792,422.261Zm-2.758,1.382-6.043.4L214.018,423h5.09a.571.571,0,0,0-.135.365.737.737,0,0,0,.062.281Z" transform="translate(-190.299 -420.793)" fill="#ed8aa5"/>
          <path id="パス_22" data-name="パス 22" d="M223.008,442.191H215.69a1.186,1.186,0,0,0-1.263,1.186V448.5c0,.342.143.75.827.75s.827-.408.827-.75v-.8h6.536v.8c0,.342.144.75.827.75s.827-.408.827-.75v-5.127a1.186,1.186,0,0,0-1.263-1.186Zm-6.927,2.078v-.627h6.536v.627Zm6.536,1.423v.588h-6.536v-.588Z" transform="translate(-193.944 -437.09)" fill="#ed8aa5"/>
        </g>
        <g id="グループ_9" data-name="グループ 9" transform="translate(39.315 1.436)">
          <path id="パス_23" data-name="パス 23" d="M298.032,432.637a4.61,4.61,0,0,0-4.6,4.6,4.494,4.494,0,0,0,1.153,3.007.754.754,0,0,0,.58.256.875.875,0,0,0,.636-.272l5.027-5.206a3.571,3.571,0,0,1,.762,2.215,3.712,3.712,0,0,1-1.19,2.648.435.435,0,0,0-.13.313.605.605,0,0,0,.564.554.381.381,0,0,0,.271-.109,4.708,4.708,0,0,0,1.522-3.407,4.6,4.6,0,0,0-4.593-4.6Zm0,1.027a3.513,3.513,0,0,1,2.034.649l-4.886,5.053a3.539,3.539,0,0,1-.723-2.123A3.58,3.58,0,0,1,298.032,433.664Z" transform="translate(-293.429 -431.251)" fill="#232323"/>
          <path id="パス_24" data-name="パス 24" d="M394.409,431.286l-1.9-1.632a.47.47,0,0,0-.307-.125.649.649,0,0,0-.534.554.429.429,0,0,0,.177.318l1.912,1.63a.435.435,0,0,0,.288.126.507.507,0,0,0,.377-.2l0,0a.567.567,0,0,0,.164-.345A.428.428,0,0,0,394.409,431.286Z" transform="translate(-368.248 -428.883)" fill="#232323"/>
          <path id="パス_25" data-name="パス 25" d="M373.2,431.939h-3.546V427.9a.531.531,0,0,0-1.047,0v.675H365.9c-.325,0-.473.169-.473.534s.146.534.473.534h2.71v2.3h-1.281a2.338,2.338,0,1,0,2.327,2.338v-1.29h3.163a.175.175,0,0,1,.182.181v2.156a.175.175,0,0,1-.182.181H371.3a.537.537,0,0,0,0,1.057h1.9a.844.844,0,0,0,.856-.857V432.8a.844.844,0,0,0-.857-.856Zm-5.872,1.047h1.279v1.29a1.279,1.279,0,1,1-1.279-1.29Z" transform="translate(-347.934 -427.306)" fill="#232323"/>
          <path id="パス_26" data-name="パス 26" d="M450.591,429.373h-2.125v-2.055c0-.332-.181-.493-.554-.493s-.544.156-.544.493v2.055h-2.246c-.325,0-.473.169-.473.534s.146.534.473.534h2.246v4.481h-1.793c-.406,0-.455.3-.455.523,0,.351.144.514.455.514h4.644c.316,0,.463-.163.463-.514s-.151-.523-.463-.523h-1.753V430.44h2.125c.33,0,.483-.169.483-.534S450.916,429.373,450.591,429.373Z" transform="translate(-408.602 -426.823)" fill="#232323"/>
          <path id="パス_27" data-name="パス 27" d="M435.042,427.079a.414.414,0,0,0-.406.316l-1.7,4.336a.657.657,0,0,0-.036.195c0,.289.357.443.614.443a.4.4,0,0,0,.386-.3l.13-.325v4.108c0,.309.16.455.5.455s.514-.148.514-.455v-4.315c0-.312-.168-.464-.514-.464a.714.714,0,0,0-.26.042l1.34-3.42v-.005a.591.591,0,0,0,.035-.195C435.648,427.213,435.288,427.079,435.042,427.079Z" transform="translate(-399.653 -427.017)" fill="#232323"/>
          <path id="パス_28" data-name="パス 28" d="M508.636,428.315c.278,0,.413-.148.413-.455s-.139-.463-.413-.463h-3.717v-.111c0-.312-.171-.463-.523-.463s-.514.147-.514.463v.111h-3.737c-.271,0-.4.152-.4.463s.13.455.4.455h3.737v.433H501a.672.672,0,0,0-.745.745v.775a.672.672,0,0,0,.745.745h2.881v.433h-3.377c-.264,0-.39.145-.39.443s.125.433.39.433h3.377v.514h-3.757c-.254,0-.382.145-.382.433s.121.433.382.433h3.757v.534h-3.377c-.264,0-.39.145-.39.443s.125.433.39.433h3.377v.544c0,.309.163.455.514.455.225,0,.523-.047.523-.455v-.544h2.913a.672.672,0,0,0,.745-.745V433.7h.081c.264,0,.39-.142.39-.433,0-.358-.214-.433-.39-.433h-.081v-.645a.672.672,0,0,0-.745-.745h-2.911v-.433H507.8a.672.672,0,0,0,.745-.745v-.775a.672.672,0,0,0-.745-.745h-2.881v-.433Zm-3.717,4.523v-.514h2.662v.514Zm2.662.866v.534h-2.662V433.7Zm-.06-4.12v.575h-2.6v-.575Zm-6.225.575v-.575h2.589v.575Z" transform="translate(-450.563 -426.823)" fill="#232323"/>
          <path id="パス_29" data-name="パス 29" d="M586.02,427.542h-4.4a.753.753,0,0,0-.8.8v.714c0,.282.147.412.463.412s.463-.13.463-.412v-.575h2.267v2.1a.672.672,0,0,0,.745.745h1.558c.278,0,.412-.148.412-.455s-.139-.455-.412-.455h-1.4v-1.934h.957v.575c0,.282.147.412.463.412s.473-.135.473-.412v-.714a.753.753,0,0,0-.792-.793Z" transform="translate(-512.316 -427.37)" fill="#232323"/>
          <path id="パス_30" data-name="パス 30" d="M597.513,453.723a.393.393,0,0,0-.325-.195c-.207,0-.564.239-.564.484a.467.467,0,0,0,.1.271l1.157,1.569a.39.39,0,0,0,.325.195c.219,0,.554-.264.554-.494a.462.462,0,0,0-.1-.271Z" transform="translate(-524.352 -447.162)" fill="#232323"/>
          <path id="パス_31" data-name="パス 31" d="M586.7,444.9h-2.025v-.574c0-.287-.159-.433-.473-.433s-.473.142-.473.433v.574h-2.025c-.379,0-.423.276-.423.484,0,.325.134.473.423.473h1.1l-1.469,2.087a.461.461,0,0,0-.1.27.668.668,0,0,0,.564.514.4.4,0,0,0,.314-.2l1.61-2.315v2.468c0,.288.15.423.473.423s.473-.138.473-.423V445.86H586.7c.292,0,.433-.155.433-.473S586.994,444.9,586.7,444.9Z" transform="translate(-512.638 -439.825)" fill="#232323"/>
          <path id="パス_32" data-name="パス 32" d="M570.053,432.151c-.054-.155-.154-.36-.4-.36a.584.584,0,0,0-.182.036l-.455.148V429.6h.544c.3,0,.433-.154.433-.483s-.142-.484-.433-.484h-.543V427.32c0-.3-.164-.455-.5-.455s-.494.144-.494.455v1.309h-.705c-.379,0-.423.276-.423.484,0,.334.13.483.423.483h.705v2.7l-.877.289a.384.384,0,0,0-.312.368c0,.253.151.6.433.6a.493.493,0,0,0,.182-.035l.573-.188v2.379c0,.307.152.443.493.443s.5-.141.5-.443v-2.7l.756-.249a.4.4,0,0,0,.325-.378.7.7,0,0,0-.031-.18Z" transform="translate(-501.663 -426.855)" fill="#232323"/>
          <path id="パス_33" data-name="パス 33" d="M583.4,435.6l1.1-1.792a.425.425,0,0,0,.076-.236c0-.241-.333-.455-.534-.455a.354.354,0,0,0-.307.2l-1.12,1.806a.472.472,0,0,0-.073.231c0,.242.339.455.544.455A.366.366,0,0,0,583.4,435.6Z" transform="translate(-513.634 -431.618)" fill="#232323"/>
          <path id="パス_34" data-name="パス 34" d="M645.121,431.665c-.364,0-.534.154-.534.483V433.6a2.966,2.966,0,0,1-5.933,0v-4.21c0-.336-.173-.493-.544-.493s-.544.157-.544.493v4.21a4.044,4.044,0,0,0,8.088.01v-1.464C645.654,431.82,645.479,431.665,645.121,431.665Z" transform="translate(-555.533 -428.4)" fill="#232323"/>
        </g>
      </g>
    </g>
  </g>
</svg>
