<svg xmlns="http://www.w3.org/2000/svg" width="241" height="99" viewBox="0 0 241 99">
  <g id="site01" transform="translate(-132.5 -181.5)">
    <rect id="Mask" width="241" height="99" rx="10" transform="translate(132.5 181.5)" fill="#fff"/>
    <g id="logo" transform="translate(188.504 210.508)">
      <g id="グループ_3" data-name="グループ 3" transform="translate(24.087 0.151)">
        <g id="グループ_2" data-name="グループ 2" transform="translate(0 0)">
          <path id="パス_1" data-name="パス 1" d="M237.64,308.538l-1.888-1.86a2.172,2.172,0,0,0-1.335-1.014,4.349,4.349,0,0,1-.226-.635,2.877,2.877,0,1,0-1.056.065,2.849,2.849,0,0,1-.2.528,2.158,2.158,0,0,0-1.575,1.209l-1.654,1.707a.518.518,0,0,0-.008.685l1.693,2.213a1.507,1.507,0,0,1-.152.122.858.858,0,0,0,.67,1.555l-1.873,9.466c-2.9-.46-1.9,1.963-1.9,1.963h3.887a1.843,1.843,0,0,0,.036-1.305l.907-9.419a2.959,2.959,0,0,0,.793.089,1.423,1.423,0,0,0,.336-.041l-.488,9.275-.012,0a1.829,1.829,0,0,0,0,1.4h3.887s.99-2.41-1.879-1.967l-.251-9.478a.6.6,0,0,0,.842-.86,1.943,1.943,0,0,1-.374-.533l1.853-2.64a.431.431,0,0,0-.027-.523Zm-6.055-.246c.034.045.07.087.109.13a12.983,12.983,0,0,0,.445,1.577.073.073,0,0,0,.007.022l-.026.085c-.021.077-.054.19-.1.319l-.981-1.537Zm3.934,2.138c.04-.275.082-.556.13-.836a6.382,6.382,0,0,0,.115-1.442l.7.708Z" transform="translate(-227.966 -299.362)" fill="#ed8aa5"/>
          <path id="パス_2" data-name="パス 2" d="M245.913,313.535a1.937,1.937,0,0,1-1.55-.777.152.152,0,1,1,.242-.184,1.639,1.639,0,0,0,1.707.608,1.676,1.676,0,0,0,1.269-1.38.155.155,0,0,1,.177-.122.152.152,0,0,1,.122.177,1.991,1.991,0,0,1-1.967,1.676Z" transform="translate(-240.44 -308.753)" fill="#fff"/>
          <g id="グループ_1" data-name="グループ 1" transform="translate(4.07 1.234)">
            <ellipse id="楕円形_1" data-name="楕円形 1" cx="0.302" cy="0.512" rx="0.302" ry="0.512" transform="translate(0 0.514) rotate(-4.405)" fill="#fff"/>
            <ellipse id="楕円形_2" data-name="楕円形 2" cx="0.302" cy="0.512" rx="0.302" ry="0.512" transform="translate(1.734 0.214) rotate(-20.791)" fill="#fff"/>
          </g>
        </g>
        <path id="パス_3" data-name="パス 3" d="M254.215,331.005l-.016-.032-.03-.044,0,0c-.011-.012-.021-.025-.032-.037a.454.454,0,0,0-.3-.142.339.339,0,0,0-.295.125.5.5,0,0,0-.1.194v.009h0l-.006-.01a.5.5,0,0,0-.073-.08.376.376,0,0,0-.343-.1.416.416,0,0,0-.264.183.389.389,0,0,0-.065.286.611.611,0,0,0,.084.223.728.728,0,0,0,.172.19,1.729,1.729,0,0,0,.213.14c.081.047.162.091.242.139a1.32,1.32,0,0,1,.236.171l.028.027h0c.016-.03.03-.062.048-.091a1.9,1.9,0,0,1,.174-.236c.059-.073.118-.145.176-.218a1.251,1.251,0,0,0,.134-.2.6.6,0,0,0,.07-.235.488.488,0,0,0-.055-.255Z" transform="translate(-246.805 -323.285)" fill="#fff"/>
      </g>
      <g id="グループ_6" data-name="グループ 6" transform="translate(-0.004 -0.008)">
        <g id="グループ_4" data-name="グループ 4">
          <path id="パス_4" data-name="パス 4" d="M128.734,298.723c-.957,0-2.073.648-2.073,1.49V322.62c0,.839,1.113,1.49,2.073,1.49s2.1-.648,2.1-1.49V300.213C130.832,299.374,129.7,298.723,128.734,298.723Z" transform="translate(-126.661 -298.718)" fill="#232323"/>
          <path id="パス_5" data-name="パス 5" d="M163.128,298.72a1.581,1.581,0,0,0-1.695,1.49v8.879h-9.9a1.626,1.626,0,0,0-1.46,1.724,1.605,1.605,0,0,0,1.46,1.724h9.9v10.081a1.581,1.581,0,0,0,1.695,1.49,1.6,1.6,0,0,0,1.724-1.49V300.21a1.6,1.6,0,0,0-1.724-1.49Z" transform="translate(-144.507 -298.715)" fill="#232323"/>
        </g>
        <g id="グループ_5" data-name="グループ 5" transform="translate(37.158 3.766)">
          <path id="パス_6" data-name="パス 6" d="M352.513,336.753h-.8c-4.376,0-6.886,2.311-6.886,6.34v3.448c0,4.116,2.381,6.291,6.886,6.291h.8c4.409,0,6.837-2.234,6.837-6.291v-3.448C359.35,339.123,356.792,336.753,352.513,336.753Zm-4.733,9.59v-3.052c0-2.462,1.32-3.608,4.154-3.608h.992c2.542,0,3.443.944,3.443,3.608v3.052c0,2.679-.869,3.583-3.443,3.583h-.992C349.138,349.927,347.78,348.755,347.78,346.343Z" transform="translate(-330.103 -331.471)" fill="#232323"/>
          <path id="パス_7" data-name="パス 7" d="M426.824,343.273c-5.036-.078-5.425-.753-5.425-1.7v-.5c0-.869.446-1.673,3.683-1.673h4.651a1.388,1.388,0,0,0,0-2.757h-4.825c-4.356,0-6.564,1.425-6.564,4.232v.769c0,2.927,2.067,4.033,7.628,4.081,4.31.025,4.529.85,4.529,2.195v.324c0,.972-.281,1.772-3.732,1.772h-2.53c-3.018,0-3.153-.893-3.284-1.757-.1-.641-.229-1.518-1.654-1.518a1.3,1.3,0,0,0-1.428,1.306v.082c.223,2.513.827,4.595,5.967,4.595h3.2c4.4,0,6.539-1.417,6.539-4.331v-.518C433.58,344.55,431.812,343.345,426.824,343.273Z" transform="translate(-385.782 -331.392)" fill="#232323"/>
          <path id="パス_8" data-name="パス 8" d="M502.853,319.856h-1.117a6.171,6.171,0,0,0-4,1.356V315.9a1.49,1.49,0,0,0-2.956,0v19.029a1.493,1.493,0,0,0,2.956,0v-8.956c0-1.573,1.177-3.162,3.806-3.162h1.141c2.423,0,3.757,1.264,3.757,3.559v8.559a1.388,1.388,0,0,0,1.478,1.279,1.4,1.4,0,0,0,1.478-1.279v-8.708C509.392,322.114,507.069,319.856,502.853,319.856Z" transform="translate(-444.399 -314.599)" fill="#232323"/>
          <path id="パス_9" data-name="パス 9" d="M574.322,336.647a1.4,1.4,0,0,0-1.478,1.279V351.72A1.387,1.387,0,0,0,574.322,353a1.371,1.371,0,0,0,1.478-1.279V337.927a1.388,1.388,0,0,0-1.478-1.279Z" transform="translate(-503.903 -331.39)" fill="#232323"/>
          <circle id="楕円形_3" data-name="楕円形 3" cx="2.05" cy="2.05" r="2.05" transform="translate(68.368 0.089)" fill="#232323"/>
          <path id="パス_10" data-name="パス 10" d="M615.453,349.7a.377.377,0,0,0-.065-.006h-.227c-.583,0-.705-.654-.705-1.2v-6.87c0-3.348-2.228-4.975-6.811-4.975h-3.8a1.36,1.36,0,0,0-1.231,1.4,1.326,1.326,0,0,0,1.231,1.378h3.8c3.221,0,3.881.877,3.881,2.194v6.283c-.508,1.39-1.879,2.037-4.3,2.037h-1.662c-2.761,0-2.993-1.132-2.993-2.195v-.472c0-1.134.35-2.293,2.943-2.293h3.961a1.251,1.251,0,0,0,1.155-1.3,1.223,1.223,0,0,0-1.155-1.254h-3.861c-5.2,0-5.972,3.039-5.972,4.852v.62c0,3.293,1.787,4.827,5.625,4.827h2.158a6.826,6.826,0,0,0,4.747-1.5,2.949,2.949,0,0,0,2.572,1.4h.471a1.336,1.336,0,0,0,1.3-1.453A1.3,1.3,0,0,0,615.453,349.7Z" transform="translate(-524.326 -331.392)" fill="#232323"/>
          <path id="パス_11" data-name="パス 11" d="M291.553,327.142h2.765a1.42,1.42,0,0,0,1.279-1.5,1.405,1.405,0,0,0-1.279-1.478h-5.482v-2.616a1.405,1.405,0,0,0-1.478-1.279,1.387,1.387,0,0,0-1.478,1.279v2.616h-1.673a1.4,1.4,0,0,0-1.279,1.478,1.42,1.42,0,0,0,1.279,1.5h1.673v8.615c0,3.186,1.724,4.8,5.125,4.8h3a1.4,1.4,0,0,0,1.3-1.453,1.467,1.467,0,0,0-1.3-1.5h-2.6c-1.895,0-2.566-.6-2.566-2.294v-8.168Z" transform="translate(-282.926 -318.904)" fill="#232323"/>
        </g>
      </g>
      <g id="グループ_7" data-name="グループ 7" transform="translate(48.984 0.3)">
        <path id="パス_12" data-name="パス 12" d="M337.179,304.393h-2.868c-.537,0-.7-.164-.7-.7V302.2h2.808a.445.445,0,0,0,0-.888h-2.808v-.786a.453.453,0,0,0-.907,0v3.194a1.425,1.425,0,0,0,1.567,1.567h2.906a.448.448,0,0,0,0-.894Z" transform="translate(-332.696 -300.07)" fill="#232323"/>
        <path id="パス_13" data-name="パス 13" d="M376.913,302.233h-2.84V300.54a.453.453,0,0,0-.907,0v4.547a.453.453,0,0,0,.907,0v-1.971h2.84a.442.442,0,0,0,0-.883Z" transform="translate(-363.538 -300.085)" fill="#232323"/>
        <path id="パス_14" data-name="パス 14" d="M411.445,309.708l1.689.183h.023c.106,0,.358-.038.4-.415v-.049a.376.376,0,0,0-.364-.4l-1.713-.189c-.093,0-.4.034-.4.468a.373.373,0,0,0,.365.4Z" transform="translate(-392.435 -306.735)" fill="#232323"/>
        <path id="パス_15" data-name="パス 15" d="M411.445,302.984l1.689.182h.023c.106,0,.359-.039.4-.42V302.7a.377.377,0,0,0-.365-.4l-1.711-.178c-.194,0-.4.123-.4.468a.374.374,0,0,0,.365.4Z" transform="translate(-392.436 -301.614)" fill="#232323"/>
        <path id="パス_16" data-name="パス 16" d="M415.067,307.167a.393.393,0,0,0-.447.415c0,1.319-.275,2.2-1.619,2.2h-2.035a.453.453,0,0,0,0,.9h2.043c2.511,0,2.511-2.332,2.511-3.1a.4.4,0,0,0-.452-.415Z" transform="translate(-392.034 -305.461)" fill="#232323"/>
        <path id="パス_17" data-name="パス 17" d="M454.958,300.583h-3.233a.453.453,0,0,0,0,.9h3.233a.754.754,0,0,1,.77.77.746.746,0,0,1-.77.771h-.784l.06-.194.01-.065a.461.461,0,0,0-.474-.431.4.4,0,0,0-.395.275l-.13.415h0l-.313,1.016-.037.118h0l-.342,1.11-.01.065a.461.461,0,0,0,.474.431.4.4,0,0,0,.394-.275l.234-.749h0l.256-.83h1.074a1.619,1.619,0,0,0,1.653-1.659,1.651,1.651,0,0,0-1.668-1.668Z" transform="translate(-423.108 -300.443)" fill="#232323"/>
      </g>
      <g id="グループ_10" data-name="グループ 10" transform="translate(0.435 29.024)">
        <g id="グループ_8" data-name="グループ 8" transform="translate(0)">
          <path id="パス_18" data-name="パス 18" d="M151.846,428.606c0-.684-.453-.786-.723-.786h-2.7v-.792h1.86a1.12,1.12,0,0,0,1.183-1.183v-2.9a1.12,1.12,0,0,0-1.183-1.183h-5.32a1.12,1.12,0,0,0-1.183,1.184v2.9a1.12,1.12,0,0,0,1.183,1.183h1.86v.792H144.1c-.265,0-.713.1-.713.786,0,.64.389.777.713.777h1.31l-2.026,2.836a.748.748,0,0,0-.158.43c0,.435.538.787.889.787a.662.662,0,0,0,.539-.317l2.165-3.023v2.831c0,.33.139.723.8.723.7,0,.8-.453.8-.723v-3.547h2.7a.675.675,0,0,0,.722-.773Zm-1.982-5.3v2.17H145.39v-2.17Z" transform="translate(-139.726 -421.529)" fill="#ed8aa5"/>
          <path id="パス_19" data-name="パス 19" d="M131.009,420.9a.705.705,0,0,0-.7.554l-1.757,5.528a.815.815,0,0,0-.06.3c0,.5.576.736.966.736a.654.654,0,0,0,.364-.1v4.34c0,.341.141.748.812.748s.825-.407.825-.748v-5.511c0-.284-.108-.761-.825-.761H130.6l1.307-4.081a.907.907,0,0,0,.053-.285C131.962,421.149,131.483,420.9,131.009,420.9Z" transform="translate(-128.497 -420.875)" fill="#ed8aa5"/>
          <path id="パス_20" data-name="パス 20" d="M167.219,454.746a.677.677,0,0,0-.531-.3.972.972,0,0,0-.876.8.753.753,0,0,0,.163.437l1.78,2.369a.678.678,0,0,0,.532.3.955.955,0,0,0,.876-.8.752.752,0,0,0-.163-.437Z" transform="translate(-156.939 -446.448)" fill="#ed8aa5"/>
          <path id="パス_21" data-name="パス 21" d="M221.763,422.257a.648.648,0,0,0-.685-.735h-4.545c-.008-.286-.133-.729-.825-.729-.661,0-.816.389-.825.729h-4.571c-.251,0-.672.1-.672.735,0,.608.365.736.672.736H211.9l-1.171,1.2-.292.018a.626.626,0,0,0-.643.684.86.86,0,0,0,.214.663.608.608,0,0,0,.477.149l9.252-.613.252.486a.652.652,0,0,0,.6.409c.3,0,.889-.251.889-.713a.8.8,0,0,0-.1-.354l-.95-1.873c-.01-.019-.021-.038-.032-.055h.678C221.334,422.993,221.763,422.9,221.763,422.257Zm-2.751,1.379-6.028.4,1.023-1.047h5.077a.57.57,0,0,0-.135.364.735.735,0,0,0,.062.28Z" transform="translate(-190.347 -420.793)" fill="#ed8aa5"/>
          <path id="パス_22" data-name="パス 22" d="M222.987,442.191h-7.3a1.183,1.183,0,0,0-1.26,1.184v5.114c0,.341.143.748.825.748s.825-.407.825-.748v-.8h6.52v.8c0,.341.143.748.825.748s.825-.407.825-.748v-5.114a1.183,1.183,0,0,0-1.26-1.183Zm-6.91,2.073v-.626h6.52v.626Zm6.52,1.42v.587h-6.52v-.587Z" transform="translate(-193.994 -437.102)" fill="#ed8aa5"/>
        </g>
        <g id="グループ_9" data-name="グループ 9" transform="translate(39.218 1.433)">
          <path id="パス_23" data-name="パス 23" d="M298.02,432.637a4.6,4.6,0,0,0-4.591,4.591,4.483,4.483,0,0,0,1.15,3,.752.752,0,0,0,.578.255.873.873,0,0,0,.635-.271l5.015-5.193a3.563,3.563,0,0,1,.76,2.21,3.7,3.7,0,0,1-1.187,2.642.435.435,0,0,0-.13.312.6.6,0,0,0,.563.553.38.38,0,0,0,.27-.108,4.7,4.7,0,0,0,1.518-3.4,4.592,4.592,0,0,0-4.582-4.591Zm0,1.025a3.5,3.5,0,0,1,2.029.648l-4.874,5.04a3.53,3.53,0,0,1-.722-2.118A3.571,3.571,0,0,1,298.02,433.662Z" transform="translate(-293.429 -431.254)" fill="#232323"/>
          <path id="パス_24" data-name="パス 24" d="M394.4,431.281l-1.9-1.628a.468.468,0,0,0-.306-.124.648.648,0,0,0-.532.553.428.428,0,0,0,.176.317l1.908,1.627a.433.433,0,0,0,.287.126.506.506,0,0,0,.376-.2l0,0a.565.565,0,0,0,.163-.345A.427.427,0,0,0,394.4,431.281Z" transform="translate(-368.305 -428.884)" fill="#232323"/>
          <path id="パス_25" data-name="パス 25" d="M373.184,431.928h-3.537V427.9a.529.529,0,0,0-1.044,0v.674h-2.7c-.324,0-.472.169-.472.532s.146.532.472.532h2.7v2.291h-1.278a2.332,2.332,0,1,0,2.321,2.332v-1.286H372.8a.175.175,0,0,1,.181.181v2.151a.175.175,0,0,1-.181.181h-1.517a.536.536,0,0,0,0,1.055h1.9a.842.842,0,0,0,.854-.854v-2.9a.842.842,0,0,0-.854-.854Zm-5.858,1.045H368.6v1.286a1.276,1.276,0,1,1-1.276-1.286Z" transform="translate(-347.976 -427.306)" fill="#232323"/>
          <path id="パス_26" data-name="パス 26" d="M450.577,429.366h-2.12v-2.05c0-.331-.181-.492-.553-.492s-.542.156-.542.492v2.05h-2.241c-.324,0-.472.169-.472.532s.146.532.472.532h2.241v4.47h-1.788c-.4,0-.453.3-.453.522,0,.35.144.512.453.512h4.632c.315,0,.462-.163.462-.512s-.151-.522-.462-.522h-1.749v-4.47h2.12c.329,0,.482-.169.482-.532S450.9,429.366,450.577,429.366Z" transform="translate(-408.69 -426.823)" fill="#232323"/>
          <path id="パス_27" data-name="パス 27" d="M435.036,427.079a.413.413,0,0,0-.4.315l-1.7,4.325a.656.656,0,0,0-.036.194c0,.288.356.442.613.442a.4.4,0,0,0,.385-.295l.13-.324v4.1c0,.308.159.453.5.453s.512-.148.512-.453v-4.3c0-.311-.167-.462-.512-.462a.713.713,0,0,0-.259.041L435.6,427.7v-.005a.588.588,0,0,0,.035-.194C435.641,427.213,435.282,427.079,435.036,427.079Z" transform="translate(-399.734 -427.017)" fill="#232323"/>
          <path id="パス_28" data-name="パス 28" d="M508.614,428.311c.277,0,.412-.148.412-.453s-.139-.462-.412-.462h-3.708v-.111c0-.311-.171-.462-.522-.462s-.512.146-.512.462v.111h-3.728c-.27,0-.4.152-.4.462s.13.453.4.453h3.728v.432H501a.67.67,0,0,0-.744.744v.773A.67.67,0,0,0,501,431h2.873v.432H500.5c-.264,0-.389.145-.389.442s.124.432.389.432h3.368v.512h-3.748c-.253,0-.382.145-.382.432s.121.432.382.432h3.748v.532H500.5c-.264,0-.389.145-.389.442s.124.432.389.432h3.368v.543c0,.308.163.453.512.453.224,0,.522-.047.522-.453v-.543h2.906a.67.67,0,0,0,.743-.744v-.663h.08c.264,0,.389-.141.389-.432,0-.357-.213-.432-.389-.432h-.08v-.643a.67.67,0,0,0-.743-.744h-2.9V431h2.874a.67.67,0,0,0,.743-.744v-.773a.671.671,0,0,0-.743-.744h-2.874v-.432Zm-3.708,4.512v-.512h2.656v.512Zm2.656.864v.532h-2.656v-.532Zm-.06-4.109v.573h-2.591v-.573Zm-6.21.573v-.573h2.583v.573Z" transform="translate(-450.683 -426.823)" fill="#232323"/>
          <path id="パス_29" data-name="パス 29" d="M586.007,427.542h-4.391a.751.751,0,0,0-.793.794v.713c0,.281.147.411.462.411s.462-.13.462-.411v-.573h2.261v2.09a.671.671,0,0,0,.743.744h1.555c.277,0,.411-.148.411-.453s-.139-.453-.411-.453h-1.4v-1.93h.955v.573c0,.281.147.411.462.411s.472-.135.472-.411v-.713a.751.751,0,0,0-.79-.791Z" transform="translate(-512.484 -427.37)" fill="#232323"/>
          <path id="パス_30" data-name="パス 30" d="M597.511,453.722a.392.392,0,0,0-.324-.194c-.207,0-.563.238-.563.483a.466.466,0,0,0,.1.271l1.154,1.565a.389.389,0,0,0,.324.194c.218,0,.553-.264.553-.492a.461.461,0,0,0-.1-.271Z" transform="translate(-524.529 -447.177)" fill="#232323"/>
          <path id="パス_31" data-name="パス 31" d="M586.69,444.9h-2.02v-.573c0-.286-.159-.432-.472-.432s-.472.141-.472.432v.573h-2.02c-.378,0-.422.275-.422.483,0,.324.134.472.422.472h1.1l-1.466,2.082a.46.46,0,0,0-.1.269.666.666,0,0,0,.562.512.4.4,0,0,0,.314-.2l1.606-2.309v2.461c0,.288.15.422.472.422s.472-.138.472-.422v-2.813h2.02c.291,0,.432-.155.432-.472S586.98,444.9,586.69,444.9Z" transform="translate(-512.806 -439.835)" fill="#232323"/>
          <path id="パス_32" data-name="パス 32" d="M570.045,432.138c-.054-.154-.154-.359-.4-.359a.585.585,0,0,0-.182.036l-.453.148v-2.373h.543c.295,0,.432-.154.432-.482s-.141-.483-.432-.483h-.542v-1.306c0-.3-.164-.453-.5-.453s-.492.144-.492.453v1.306h-.7c-.378,0-.422.275-.422.483,0,.334.13.482.422.482h.7v2.691l-.874.288a.383.383,0,0,0-.311.367c0,.253.15.6.432.6a.491.491,0,0,0,.182-.035l.572-.188v2.373c0,.306.152.442.492.442s.5-.141.5-.442V433l.754-.248a.4.4,0,0,0,.324-.377.7.7,0,0,0-.031-.179Z" transform="translate(-501.823 -426.855)" fill="#232323"/>
          <path id="パス_33" data-name="パス 33" d="M583.4,435.594l1.1-1.787a.424.424,0,0,0,.076-.235c0-.24-.332-.453-.532-.453a.353.353,0,0,0-.306.2l-1.117,1.8a.471.471,0,0,0-.073.231c0,.241.338.453.542.453A.365.365,0,0,0,583.4,435.594Z" transform="translate(-513.803 -431.622)" fill="#232323"/>
          <path id="パス_34" data-name="パス 34" d="M645.1,431.658c-.363,0-.532.154-.532.482v1.447a2.959,2.959,0,0,1-5.918,0v-4.2c0-.336-.172-.492-.543-.492s-.542.157-.542.492v4.2a4.034,4.034,0,0,0,8.068.01v-1.46C645.634,431.813,645.46,431.658,645.1,431.658Z" transform="translate(-555.735 -428.401)" fill="#232323"/>
        </g>
      </g>
    </g>
  </g>
</svg>
