<svg id="good_icon01" xmlns="http://www.w3.org/2000/svg" xmlns:xlink="http://www.w3.org/1999/xlink" width="100" height="100" viewBox="0 0 100 100">
  <defs>
    <clipPath id="clip-path">
      <rect id="Mask" width="100" height="100" rx="50" fill="#f08181"/>
    </clipPath>
    <clipPath id="clip-path-2">
      <path id="Clip_2" data-name="Clip 2" d="M0,0H46.89V55.032H0Z" fill="none"/>
    </clipPath>
    <clipPath id="clip-path-3">
      <path id="Clip_11" data-name="Clip 11" d="M0,0H72.4V42.92H0Z" transform="translate(0 0)" fill="none"/>
    </clipPath>
  </defs>
  <rect id="Mask-2" data-name="Mask" width="100" height="100" rx="50" fill="#f08181"/>
  <g id="Group_15" data-name="Group 15" clip-path="url(#clip-path)">
    <g id="Group_15-2" data-name="Group 15" transform="translate(14 11)">
      <g id="Group_3" data-name="Group 3" transform="translate(12.442)">
        <path id="Clip_2-2" data-name="Clip 2" d="M0,0H46.89V55.032H0Z" fill="none"/>
        <g id="Group_3-2" data-name="Group 3" clip-path="url(#clip-path-2)">
          <path id="Fill_1" data-name="Fill 1" d="M5.248,55.019h0c0-.059-.014-.317-.031-.73-.009-.236-.021-.521-.035-.849s-.027-.692-.067-1.1c0-.024,0-.05-.006-.075l0-.039-.068-.112-.069-.112c-.029-.049-.063-.1-.1-.165a5.336,5.336,0,0,1-.29-.5c-.013-.023-.026-.047-.038-.072l-.013-.024c-.057.495-.122.943-.191,1.33,0,.011.017.05.031.082l.124.259.045.093c.2.413.319.655.327.671L4.406,53.1c-.026-.036-.055-.075-.085-.115l-.053-.07-.009.049c-.007.039-.015.078-.023.113-.059.324-.14.609-.206.838-.035.123-.065.229-.088.325-.072.264-.114.42-.118.435,0-.012,0-.128.005-.32l0-.133c0-.1,0-.205.006-.33a8.391,8.391,0,0,0-.006-.852c-.008-.242-.027-.529-.059-.877l-.009-.013-.135-.214c-.065-.1-.122-.215-.183-.334-.032-.062-.065-.126-.1-.19l-.079-.15c-.073-.138-.148-.28-.219-.428l-.136-.315-.141-.327c-.027-.064-.054-.128-.082-.192l-.062-.146L2.575,49.7v-.007h0L2.5,49.5l-.055-.161-.056-.163c0,.1,0,.2.007.3.025.688.043,1.151.043,1.163,0-.011-.17-.447-.413-1.084a24.672,24.672,0,0,1-.77-2.438c0,.174,0,.345,0,.511v.234c0,.45,0,.857.02,1.211.01.3.02.562.029.792l.005.143c.018.485.027.775.029.812,0-.021-.028-.185-.068-.457l-.05-.345c-.037-.258-.083-.571-.136-.929-.055-.338-.1-.733-.151-1.207-.033-.3-.067-.612-.1-.939v-.005l-.054-.49c-.035-.322-.057-.651-.08-1-.013-.2-.026-.4-.043-.607C.625,44.381.59,43.9.575,43.418A46.922,46.922,0,0,0,.608,48.59c-1.019-1.857-.561-9.609,0-15.785A57,57,0,0,1,2.2,18.84c0-.012,0-.019,0-.019C3.646,13.185,6.025,8.736,9.277,5.6,13.13,1.884,18.235,0,24.45,0c6.488.1,11.705,2.557,15.507,7.3a27.791,27.791,0,0,1,4.474,8.423,45.726,45.726,0,0,1,2.106,9.8,61.065,61.065,0,0,1-.751,18.2,34.959,34.959,0,0,1-1.162,5.5,8.588,8.588,0,0,1-.3.92c-.033.089-.064.175-.094.259-.082.224-.157.432-.224.618l-.1.28-.282.776c.009-.036.08-.306.21-.8.05-.185.107-.4.17-.638l.076-.285c.021-.084.044-.169.068-.257a8.71,8.71,0,0,0,.214-.946c.062-.293.125-.625.2-1.045a7.84,7.84,0,0,1-1.267,2.332c-.026.048-.05.1-.073.142a2.56,2.56,0,0,1-.156.282c-.04.062-.077.116-.116.175-.012.2-.022.339-.033.462,0,.063-.008.122-.014.18.02.092.042.184.067.274.042.171.08.322.112.447l.1.393-.232-.326-.061-.086-.07-.1v.007c-.005.029-.011.06-.014.085-.032.194-.05.31-.052.326,0-.013-.007-.1-.016-.243l-.006-.086c0-.038-.006-.08-.009-.124s0-.075-.008-.115l-.033-.045c-.063-.086-.133-.191-.213-.322-.086.131-.138.209-.146.22,0-.011.028-.077.07-.186l.037-.1c-.011-.019-.022-.037-.033-.055s-.029-.047-.042-.073c-.129-.209-.269-.463-.414-.754a6.711,6.711,0,0,1-.352.7,3.007,3.007,0,0,1-.246.394c-.038.053-.07.1-.1.142l-.133.2c0-.009.017-.048.042-.112l.043-.112c.016-.051.038-.107.064-.172s.057-.145.085-.229a3.436,3.436,0,0,1-.232.4l-.262.4c0-.014.064-.179.162-.454a3.461,3.461,0,0,0,.153-.526c.026-.1.053-.209.082-.324.013-.086.028-.175.043-.266l.017-.1c0-.019.006-.04.009-.061s.005-.038.008-.056c-.042.1-.083.193-.12.278s-.081.184-.111.26l-.155.35s-.033-.078-.081-.2l-.06-.158c-.03-.071-.06-.152-.093-.237-.021-.056-.044-.115-.068-.177-.084.144-.142.24-.194.32a6.693,6.693,0,0,1-.393.6l-.06.582-.031-.451c-.026.035-.055.077-.091.132-.136.192-.216.308-.223.318,0-.011.038-.116.1-.29l.028-.083c.025-.085.059-.183.095-.287.022-.062.044-.128.067-.2l-.079-1.139c-.017.024-.038.05-.056.074l-.011.014a6.948,6.948,0,0,1-.6.732l-.013.017,0,.006c-.076.594-.124.975-.124.975l-.194-.633c-.058.062-.118.128-.158.172s-.093.1-.133.144l-.068.074-.049.564,0,.031c0-.041,0-.252,0-.546l-.176.193.151-.274.026-.048v-.032c0-.4.011-.948.017-1.586-.052-.2-.1-.41-.153-.618a.078.078,0,0,0-.011.012.064.064,0,0,1-.012.013l-.085.089c-.063.066-.125.13-.186.2q-.006.174-.013.339c-.005.138-.01.268-.014.392-.039.9-.066,1.5-.067,1.518,0-.014-.131-.58-.337-1.478l-.027-.113-.034-.144-.048.05c-.032.033-.064.067-.094.1l-.218.225-.18.186c-.047.041-.089.078-.135.117-.079.513-.13.839-.135.874,0-.009-.043-.264-.108-.661a.041.041,0,0,1-.013.01l-.156.136-.118.1.015.062c.011.047.023.1.037.141.1.385.166.648.17.662-.006-.008-.179-.235-.412-.539-.016-.018-.031-.039-.046-.06l-.028-.038-.092.08-.543.467.312-.662c.029-.061.064-.135.1-.2-.107-.161-.213-.333-.326-.515q-.1-.154-.195-.313c-.059.2-.116.378-.173.539a5.3,5.3,0,0,1-.212.576c-.031.074-.058.138-.079.2-.073.186-.115.292-.115.292l.044-.311c.007-.065.019-.14.031-.219a5.386,5.386,0,0,0,.068-.6c.032-.329.053-.73.06-1.192-.083-.16-.161-.318-.229-.471a10.39,10.39,0,0,1-.629,1.746,3.344,3.344,0,0,1-.239.46c-.038.064-.071.119-.1.169l-.131.233.064-.262c.011-.057.028-.122.046-.19a3.332,3.332,0,0,0,.1-.5,10.414,10.414,0,0,0,.117-1.931c-.008.042-.016.084-.024.127l0,.025c-.028.188-.057.378-.085.566-.091.593-.176,1.152-.206,1.6-.056.6-.093,1-.094,1.008s-.158-.329-.437-.908c-.216-.423-.44-.969-.677-1.547-.072-.176-.144-.351-.217-.526s-.139-.381-.209-.571c-2.563-.157-5.279-.237-8.07-.237-3.088,0-6.095.1-8.935.292-.021.185-.035.329-.044.454-.056.6-.093,1-.094,1.008s-.153-.321-.437-.908c-.072-.143-.149-.305-.233-.5L14.03,49l-.175.013c0,.013,0,.027,0,.041s0,.029,0,.042l.038.222,0,.01c.017.1.033.194.049.284.1.61.176,1.028.185,1.078V50.7c0-.007-.1-.171-.252-.444l-.289-.507-.043-.078-.022-.039-.069.158c-.044.1-.082.187-.112.261-.1.223-.155.352-.157.356s-.023-.063-.124-.327c-.081.27-.146.479-.205.66-.26.831-.438,1.4-.454,1.453,0-.006-.034-.559-.1-1.6-.013-.269-.034-.581-.062-.955l-.109.445,0,.046c0,.042.008.083.011.121.025.24.04.381.04.387s-.024-.018-.057-.044l-.1-.081-.272,1.109-.284-1.55c-.1-.083-.194-.162-.281-.241-.047.114-.093.228-.137.338a9.984,9.984,0,0,1-.45,1.014c-.189.371-.314.619-.314.619l.054-.693a9.193,9.193,0,0,0,.029-1.041c0-.152,0-.309,0-.463-.007-.085-.014-.168-.019-.25l-.049.006c-.053.006-.105.012-.157.02a11.7,11.7,0,0,1-.461,1.168l.008.112c0,.042.006.084.009.126.007.072.012.144.017.215.009.13.018.253.038.369.022.135.044.264.064.386l.022.13.186,1.082-.414-.726L9.5,52.018l-.112-.2-.153-.271c-.007-.012-.013-.025-.019-.037L9.2,51.489c-.011.021-.02.035-.024.041s.008-.03.016-.059c-.046-.091-.088-.183-.133-.281-.027-.06-.055-.12-.084-.181l-.247-.551-.22-.491c-.007.112-.013.226-.019.337l-.007.125c0,.115-.011.231-.018.343-.013.217-.026.421-.02.618s.006.4.008.583V52l0,.254.027,1.792-.23-.7c-.07-.08-.161-.184-.279-.316l-.158-.18-.331-.377-.079-.09c-.168-.191-.359-.408-.538-.656L6.847,51.7l-.019-.024c-.193.653-.326,1.107-.328,1.114,0-.011-.094-.713-.25-1.878L6.2,50.849,6.168,50.8c-.121-.151-.231-.313-.333-.467v.057l0,.179c-.014.62-.023,1.036-.023,1.052,0-.012-.057-.234-.145-.6l-.049-.2c-.034.64-.066,1.125-.1,1.526-.023.425-.065.813-.1,1.1l-.013.115c-.031.28-.058.527-.079.735C5.282,54.7,5.254,54.961,5.248,55.019Zm-.33-4.8-.1.021-.195.043c.063.365.13.688.2.958a5.188,5.188,0,0,0,.146.527c.025.078.046.144.063.205l.014.046c.024.079.042.138.055.178C5.058,51.613,5,50.947,4.918,50.217Zm33.669.4h0c-.013.155-.025.3-.037.443v.015c-.018.209-.034.4-.049.567.025-.044.045-.08.068-.123l.118-.21.075-.135-.053-.177-.047-.156c-.014-.041-.028-.084-.041-.127S38.6,50.645,38.587,50.613Zm1.644-.73-.07.678c.042-.165.084-.348.129-.559l-.053-.107,0-.007Zm-.86-.225c-.028.143-.056.3-.085.466l.015-.034c.007-.015.014-.031.022-.048l.16-.364C39.445,49.67,39.405,49.663,39.371,49.658Z" transform="translate(0 0)" fill="#38312c"/>
        </g>
      </g>
      <path id="Fill_4" data-name="Fill 4" d="M69.781,31.068c-1.292-8.516-5.6-13-11.416-13a24.485,24.485,0,0,1-10.984-2.531c-1.939-.807-1.787-2.914-2.154-4.949C43.985,3.714,44.8,0,44.8,0H26.92s.81,3.714-.432,10.586c-.367,2.035-.215,4.142-2.153,4.949A24.491,24.491,0,0,1,13.35,18.066c-5.815,0-10.123,4.486-11.416,13S-.327,56.461.1,60.41H71.612c.431-3.949-.539-20.826-1.831-29.342" transform="translate(0.344 46.624)" fill="#f9ddc7"/>
      <path id="Fill_6" data-name="Fill 6" d="M18.074,8.363A37.664,37.664,0,0,1,17.415,0c-2.784,2.345-6.284,3.892-8.708,3.892S2.784,2.345,0,0C.006.121.011.246.014.375A35.533,35.533,0,0,0,12.5,7.095a37.626,37.626,0,0,0,5.573,1.268" transform="translate(27.494 48.828)" fill="#edccb7"/>
      <path id="Fill_8" data-name="Fill 8" d="M34.757,21.175c-.053-1.074-.126-2.22-.221-3.455C33.487,4.142,27.734,0,19.334,0S5.182,4.142,4.133,17.72c-.1,1.235-.168,2.381-.221,3.455A2.08,2.08,0,0,0,.464,21.4c-1.151,1.5.059,5.8,1.265,7.02a3.928,3.928,0,0,0,2.3,1.47,26.184,26.184,0,0,0,2.874,9.461c2.187,4.719,8.63,8.514,12.427,8.514s10.241-3.8,12.428-8.514a26.184,26.184,0,0,0,2.874-9.461,3.92,3.92,0,0,0,2.3-1.47C38.146,27.2,39.356,22.9,38.2,21.4A2.079,2.079,0,0,0,34.757,21.175Z" transform="translate(16.867 4.854)" fill="#f9ddc7"/>
      <path id="Fill_1-2" data-name="Fill 1" d="M0-2.019C1.216-.986,2.116,0,2.887,0,3.966,0,4.764-.959,5.851-1.925" transform="translate(33 47.574)" fill="none" stroke="#38312c" stroke-miterlimit="10" stroke-width="0.5"/>
      <g id="Group_12" data-name="Group 12" transform="translate(0 64.459)">
        <path id="Clip_11-2" data-name="Clip 11" d="M0,0H72.4V42.92H0Z" transform="translate(0 0)" fill="none"/>
        <g id="Group_12-2" data-name="Group 12" clip-path="url(#clip-path-3)">
          <path id="Fill_10" data-name="Fill 10" d="M60.315,0A69.669,69.669,0,0,1,36.2,4.207,69.663,69.663,0,0,1,12.088,0C6.766.777,3.105,5.484,1.937,13.18.605,21.959-.321,38.717.1,42.611l.033.309H72.265l.033-.309c.425-3.894-.5-20.652-1.833-29.431C69.3,5.484,65.636.777,60.315,0" transform="translate(0 0)" fill="#aa86bf"/>
        </g>
      </g>
      <path id="Fill_13" data-name="Fill 13" d="M37.752,21.418c-.043-.459-.078-.865-.137-1.2L37.436,19l-1.1.244c0-.1,0-.148,0-.148l-1.527.015C34.455,10.143,30.913.188,19.5,0,8.091.025,4.175,10.469,2.87,17.727c-.41.5-.812,1.013-1.141,1.447a3.149,3.149,0,0,0-.768-.242C-2.145,30.064,3.274,47.584,3.274,47.584S2.755,43.1,2.4,37.943c.767,4.284,1.94,7.967,3.737,9.123-1.426-4.275-2.006-15.763-1.8-23.4q1.057-.083,2.13-.154a23.892,23.892,0,0,0,1.313-4.1,39.708,39.708,0,0,0-.225,4.031q3.134-.185,6.385-.269a63.337,63.337,0,0,1,1-6.5s.1,3.99.271,6.473q1.962-.039,3.957-.041,2.291,0,4.536.052a25.571,25.571,0,0,0-.307-4.527,22.339,22.339,0,0,1,.929,4.543c.73.017,1.456.041,2.178.066V21.467s.216.916.5,1.791q2.49.1,4.91.258a28.194,28.194,0,0,0-.255-3.842c.129.7.444,2.39.749,3.873.55.037,1.091.08,1.634.123a79.082,79.082,0,0,1,.108,8.146,38.088,38.088,0,0,1-.509,4.6c-.052.367-.144.717-.219,1.066s-.141.694-.24,1.016c-.2.646-.351,1.277-.582,1.824-.106.278-.206.543-.3.8s-.225.479-.325.7a9.91,9.91,0,0,1-.579,1.114c-.364.6-.571.939-.571.939s.242-.318.663-.879a9.39,9.39,0,0,0,.7-1.06c.124-.211.273-.428.4-.672s.253-.508.389-.778c.292-.535.511-1.154.781-1.8.136-.323.23-.666.352-1.012s.244-.7.333-1.068a32.863,32.863,0,0,0,.758-3.28c.03.625.058,1.254.092,1.883.012.379.023.756.032,1.135-.01.226-.02.455-.031.679-.046.243-.091.485-.141.719-.069.4-.18.768-.266,1.143s-.169.74-.28,1.088c-.213.7-.39,1.371-.618,1.966-.108.3-.21.59-.308.866s-.216.523-.315.765c-.2.479-.37.9-.546,1.233l-.525,1.056.623-1c.209-.314.414-.72.664-1.183.122-.233.264-.475.39-.74s.255-.549.392-.842c.285-.574.524-1.223.8-1.9-.059,1.685-.1,3.261-.1,4.6,0,.324-.005.637-.008.934s.014.58.021.845c.013.53.024.992.033,1.371.019.76.029,1.194.029,1.194s.03-.434.083-1.192c.025-.379.057-.838.094-1.365.017-.264.037-.543.057-.84.028-.273.057-.56.087-.857,0,.144,0,.291.007.431.012,1.381.057,2.532.072,3.336s.031,1.264.031,1.264.03-.459.081-1.262.111-1.949.22-3.326c.18-2.453.438-5.637.642-8.914.049-.353.1-.709.149-1.062,0-.012,0-.022,0-.034.184-.759.353-1.533.507-2.312a48.421,48.421,0,0,0,.646-5.084c.083-1.26.118-2.459.1-3.549.006-.121.012-.24.018-.353.028-.539.052-1.006.072-1.393.041-.773.062-1.215.062-1.215Z" transform="translate(17.031 3.734)" fill="#38312c"/>
    </g>
  </g>
</svg>
