<svg id="good_icon02" xmlns="http://www.w3.org/2000/svg" xmlns:xlink="http://www.w3.org/1999/xlink" width="100" height="100" viewBox="0 0 100 100">
  <defs>
    <clipPath id="clip-path">
      <rect id="Mask" width="100" height="100" rx="50" fill="#f08181"/>
    </clipPath>
  </defs>
  <rect id="Mask-2" data-name="Mask" width="100" height="100" rx="50" fill="#f08181"/>
  <g id="Group_15" data-name="Group 15" clip-path="url(#clip-path)">
    <g id="Group_17" data-name="Group 17" transform="translate(14 12)">
      <path id="Fill_1" data-name="Fill 1" d="M41.394,27.855c.006-.291.007-.58.005-.865a26.628,26.628,0,0,0-.422-4.084,29.615,29.615,0,0,0-4.319-12.869c-.112-1.629-.733-3.119-2.35-3.676-.5-1.5-1.925-2.078-3.5-2.063a10.767,10.767,0,0,0-1.3-.781l-.745-.391c-.18-.08-.356-.148-.526-.214-.017-.014-.03-.026-.048-.039-.083-.065-.174-.141-.278-.215-.035-.026-.078-.053-.115-.078A8.868,8.868,0,0,0,20.958.066,12.115,12.115,0,0,0,18.716.041a11.418,11.418,0,0,0-2.544.48l-.524.166c-.163.063-.315.131-.46.189a6.527,6.527,0,0,0-.738.342l-.627.342.053.076c-.138,0-.294,0-.47,0a4.6,4.6,0,0,0-2.255.653,4.227,4.227,0,0,0-.986.89,5.048,5.048,0,0,0-.61.985,1.53,1.53,0,0,0-.231-.02,3.019,3.019,0,0,0-1.173.213,3.639,3.639,0,0,0-.877.531,2.767,2.767,0,0,0-.936.2,2.445,2.445,0,0,0-.364.143,2.481,2.481,0,0,0-.792.6A4.028,4.028,0,0,0,4.02,8.5c-.082.078-.164.152-.252.234l-.384.439c-.065.077-.132.153-.2.231s-.12.168-.18.254c-.118.172-.243.345-.361.527a9.91,9.91,0,0,0-1.039,2.465,10.334,10.334,0,0,0-.254,1.391,13.647,13.647,0,0,0-.381,4.2c-.18,1.05-.323,2.064-.44,3.049-.071.416-.138.835-.2,1.265a33.165,33.165,0,0,0-.2,7.637A28.083,28.083,0,0,0,.8,34.021a24.115,24.115,0,0,0,1.033,3.141c3.411,9.478,11.153,12.24,13.641,14.1,3.682,2.762,13.578-1.15,17.606-3.566,2.557-1.535,5.37-7.225,6.987-12.379.146-.406.285-.815.41-1.229a22.073,22.073,0,0,0,.618-2.773,13.86,13.86,0,0,0,.3-3.465" transform="translate(15.896)" fill="#5b4f52"/>
      <path id="Fill_3" data-name="Fill 3" d="M69.781,31.068c-1.292-8.516-5.6-13-11.415-13a24.463,24.463,0,0,1-10.985-2.531c-1.938-.805-1.786-2.914-2.154-4.947C43.986,3.713,44.8,0,44.8,0H26.92s.81,3.713-.431,10.586c-.368,2.033-.216,4.142-2.154,4.947a24.458,24.458,0,0,1-10.984,2.531c-5.816,0-10.124,4.488-11.416,13S-.327,56.461.1,60.41H71.612c.431-3.949-.538-20.826-1.831-29.342" transform="translate(0.343 52.535)" fill="#f9ddc7"/>
      <path id="Fill_5" data-name="Fill 5" d="M70.465,14.584c-1.282-8.449-5.567-13.3-11.757-13.3A22.975,22.975,0,0,1,50.832,0L36.563,15.959,21.577,0a22.892,22.892,0,0,1-7.883,1.287c-6.19,0-10.476,4.848-11.757,13.3C.6,23.363-.321,40.121.1,44.016l.033.308H72.264l.033-.308c.425-3.9-.5-20.653-1.832-29.432" transform="translate(0 68.966)" fill="#82c4c4"/>
      <path id="Fill_7" data-name="Fill 7" d="M18.074,8.363A37.741,37.741,0,0,1,17.415,0c-2.784,2.345-6.284,3.892-8.708,3.892S2.784,2.345,0,0C.006.119.011.244.015.373A35.447,35.447,0,0,0,12.5,7.093a37.636,37.636,0,0,0,5.573,1.27" transform="translate(27.493 54.74)" fill="#edccb7"/>
      <path id="Fill_9" data-name="Fill 9" d="M.511.469C.509.457.506.448.5.438L.5.467C.482.592.486.592.511.469" transform="translate(25.945 86.985)" fill="#5b4f52"/>
      <path id="Fill_11" data-name="Fill 11" d="M12.507,43.2h0c-.532-2.968-2.677-5.263-4.752-7.482-.264-.282-.536-.573-.8-.858l0,.029c.01.109.019.212.036.318.016.076.028.155.041.23a2.721,2.721,0,0,0,.093.43,7.146,7.146,0,0,0,1,2.177,11,11,0,0,0,1.183,1.43l.22.217.009.009.259.256.037.032.345.3.3.266c-.033-.025-.127-.1-.268-.209l-.05-.039c-.109-.085-.242-.189-.4-.312l-.325-.289,0,0-.186-.166a11.016,11.016,0,0,1-1.267-1.38,7.369,7.369,0,0,1-1.148-2.2,2.93,2.93,0,0,1-.122-.456c-.016-.077-.033-.156-.053-.234-.025-.118-.043-.242-.058-.358l-.022-.023-.129-.134c-.048-.051-.1-.108-.169-.174-.13-.132-.292-.295-.466-.5A11.566,11.566,0,0,1,4,31.268c-.068-.14-.13-.294-.177-.412-.054-.085-.106-.169-.158-.253l-.046-.075c.04.111.065.185.076.215-.016-.036-.06-.139-.13-.305-.159-.263-.3-.5-.422-.734C2.8,29.3,2.464,28.847,2.13,28.37A13.9,13.9,0,0,1,.652,25.448a11.621,11.621,0,0,1-.646-3.481,12.883,12.883,0,0,1,.425-3.64,24.6,24.6,0,0,1,2.884-6.512c.491-.818,1.013-1.635,1.6-2.5l.019-.035c.074-.134.144-.261.222-.388.242-.41.505-.8.731-1.122l.009-.018c.032-.067.064-.136.095-.2A31.647,31.647,0,0,0,7.451,3.991a18.116,18.116,0,0,0,.662-2.584c.041-.2.064-.38.083-.523.011-.08.02-.15.03-.209.023-.17.037-.26.037-.26l.7.125c0-.008,0-.019,0-.028L8.96.5,8.9.145,9.532,0c0,.005.018.123.058.377l0,.024L9.706.393s0,.064,0,.164V.672l.475.085c0,.005-.025.107-.065.289-.014.059-.029.126-.045.2-.036.165-.08.371-.147.607-.031.127-.07.263-.11.408l-.008.03.186,0c.19-.256.294-.4.294-.4l.51.422-.45.59v.012c-.009.16-.02.359-.04.579.212.316.4.594.561.85L12.2,4.233c0,.01.068,1.088.18,2.822a10.736,10.736,0,0,1,.936,3.178,10.735,10.735,0,0,1-.653,5c-.013.5-.032.934-.057,1.34l-.037.36c-.048.465-.1.931-.143,1.4-.049.385-.126.778-.2,1.157-.04.206-.081.417-.118.626a16.855,16.855,0,0,1-.427,1.8c-.2.652-.406,1.222-.621,1.745-.239.59-.518,1.211-.878,1.955,0,.066-.01.132-.015.2-.116,1.348-.261,2.628-.431,3.807-.133.813-.241,1.416-.348,1.958.356.935.789,1.873,1.208,2.78C11.874,37.138,13.2,40.012,12.507,43.2ZM4.729,32.175h0A12.14,12.14,0,0,0,5.88,34.022c.163.216.314.392.436.533.058.067.109.127.153.18l.066.079.067.08c-.007-.053-.013-.106-.019-.159-.008-.069-.016-.135-.025-.2,0-.021,0-.041,0-.062s0-.042,0-.062l-.014-.016c-.076-.085-.154-.171-.228-.256C5.713,33.45,5.2,32.808,4.729,32.175Zm4.454-4.569c-.228.448-.413.817-.58,1.162,0,.028.008.055.011.081s.008.057.012.085A12.672,12.672,0,0,0,9.04,30.6c.027-.329.052-.662.078-1.049C9.147,28.97,9.168,28.335,9.183,27.606ZM3.14,12.977a22.885,22.885,0,0,0-2.4,5.441,12.547,12.547,0,0,0-.474,3.543,11.409,11.409,0,0,0,.575,3.414,13.753,13.753,0,0,0,1.41,2.905c.175.26.359.519.561.793a12.847,12.847,0,0,1-1.083-8.628,17.081,17.081,0,0,1,.361-3.992A21.449,21.449,0,0,1,3.14,12.977Zm6,10.1h0a12.056,12.056,0,0,0-.671,4.271l.128-.287c.2-.441.4-.9.6-1.35-.01-.78-.027-1.642-.052-2.633Zm2.007-4.461c-.176.349-.354.7-.529,1.052-.072.882-.141,1.875-.208,2.834a15.422,15.422,0,0,0,.563-2.607c.025-.2.054-.4.082-.6C11.084,19.069,11.117,18.839,11.144,18.612ZM4.109,11.776a21.957,21.957,0,0,0-1.7,4.755,17.236,17.236,0,0,0-.394,2.75c.168-.605.377-1.234.621-1.868a12.78,12.78,0,0,1,.627-1.363,11.323,11.323,0,0,1,.2-2.03A14.058,14.058,0,0,1,4.109,11.776ZM7.975,6.727c-.26.494-.537,1-.822,1.5-.159.28-.325.568-.486.847-.572.991-1.161,2.012-1.65,3.066a13.094,13.094,0,0,0-.783,2.08c-.031.11-.056.22-.081.327.371-.567.764-1.119,1.1-1.584.341-.607.7-1.254,1.026-1.9a20.044,20.044,0,0,0,1.7-4.333V6.727Z" transform="translate(13.945 44.22)" fill="#5b4f52"/>
      <path id="Fill_13" data-name="Fill 13" d="M38.2,21.4a2.081,2.081,0,0,0-3.449-.229c-.052-1.072-.125-2.22-.22-3.453C33.487,4.142,27.734,0,19.334,0S5.181,4.142,4.133,17.72c-.095,1.233-.168,2.381-.221,3.453A2.081,2.081,0,0,0,.463,21.4c-1.15,1.5.06,5.793,1.266,7.02a3.921,3.921,0,0,0,2.3,1.468,26.171,26.171,0,0,0,2.874,9.461c2.186,4.719,8.63,8.516,12.427,8.516s10.241-3.8,12.427-8.516a26.151,26.151,0,0,0,2.875-9.461,3.916,3.916,0,0,0,2.3-1.468c1.206-1.227,2.417-5.524,1.266-7.02" transform="translate(16.867 10.765)" fill="#f9ddc7"/>
      <path id="Fill_15" data-name="Fill 15" d="M29.08,11.178a.152.152,0,0,1-.011-.016,26.942,26.942,0,0,0-2.256-4.291A17.462,17.462,0,0,0,23,2.641a13.09,13.09,0,0,0-2.27-1.424A12.086,12.086,0,0,0,18.359.36a11.511,11.511,0,0,0-2.3-.34C15.7-.011,15.338,0,14.989,0c-.347.02-.686.032-1.011.067a17.472,17.472,0,0,0-3.3.677c-.887.284-2.72,1.045-2.72,1.045-1.464.5-4.178,7.1-3.252,9.532a16.863,16.863,0,0,0-1.161,1.621c-.2.287-.358.617-.544.935a10.979,10.979,0,0,0-.521.994Q2.246,15.39,2,15.922c-.147.361-.277.733-.418,1.1-.067.185-.143.369-.2.558l-.172.571c-.107.382-.242.759-.326,1.15a30.6,30.6,0,0,0-.772,4.576,32.411,32.411,0,0,0-.077,4.012c.013.291.025.57.038.838s.047.515.069.752c.041.472.081.884.137,1.22.1.672.153,1.055.153,1.055S.418,31.369.4,30.692c-.018-.338-.012-.75,0-1.221,0-.234.009-.484.014-.748s.036-.539.055-.826A31.565,31.565,0,0,1,.976,24,29.591,29.591,0,0,1,2.2,19.715c.119-.357.288-.7.428-1.043l.218-.515c.075-.17.166-.333.247-.5.169-.326.326-.654.5-.97s.367-.608.546-.907a9.891,9.891,0,0,1,.569-.841c.2-.264.365-.543.576-.776a14.646,14.646,0,0,1,1.173-1.3L7,12.326c.183-.162.37-.3.536-.437l.471-.379c.012-.01.025-.016.036-.025a13.677,13.677,0,0,0,1.2-.784c.174-.38.694-.589,1.571-.371a21.49,21.49,0,0,1,2.745,1.442,24.335,24.335,0,0,1,4.247,3.4,28.968,28.968,0,0,1,2.07,2.319c.662.832,1.288,1.718,1.881,2.63s1.124,1.868,1.624,2.821.937,1.924,1.331,2.875a42.59,42.59,0,0,1,1.8,5.345c.427,1.6.686,2.965.843,3.92.085.479.133.858.171,1.116l.057.394s-.009-.139-.026-.4-.036-.643-.084-1.125c-.084-.969-.236-2.354-.539-4a43.5,43.5,0,0,0-1.406-5.557c-.326-1-.71-2.019-1.134-3.045s-.918-2.043-1.45-3.043-1.123-1.972-1.751-2.9a31.141,31.141,0,0,0-2-2.631c-.378-.441-.765-.861-1.155-1.264,4.893,1.438,10.4,5.375,12.18,18.633a38.786,38.786,0,0,1,.009,4.522c-.066.875-.119,1.732-.224,2.566-.061.414-.107.828-.193,1.23s-.15.8-.251,1.19c-.125.521-.268,1.025-.419,1.519a48.39,48.39,0,0,1-2.272,5.057c-.4.809-.761,1.414-.992,1.836s-.36.645-.36.645.129-.221.374-.637.617-1.016,1.03-1.817c.409-.748.886-1.666,1.384-2.73-.055.137-.108.279-.165.412a49.422,49.422,0,0,1-3.123,6.022c-.842,1.408-1.341,2.2-1.341,2.2s.517-.783,1.391-2.172a49.306,49.306,0,0,0,3.271-5.967,28.6,28.6,0,0,0,1.238-3.271l-.006.025c6.138-14.111.313-29.713-.489-30.711" transform="translate(21.387 2.942)" fill="#5b4f52"/>
    </g>
    <path id="Fill_1-2" data-name="Fill 1" d="M0-2.019C1.216-.986,2.116,0,2.887,0,3.966,0,4.764-.959,5.851-1.925" transform="translate(47 63.019)" fill="none" stroke="#5b4f52" stroke-miterlimit="10" stroke-width="0.5"/>
  </g>
</svg>
