<svg id="search_icon" xmlns="http://www.w3.org/2000/svg" width="16.86" height="16.86" viewBox="0 0 16.86 16.86">
  <g id="_PC_トップページ_非ログイン_" data-name="【PC】トップページ(非ログイン)" transform="translate(-837 -51)">
    <g id="Group-22" transform="translate(40 29)">
      <g id="Group" transform="translate(518)">
        <g id="Group-4" transform="translate(265 8)">
          <g id="search" transform="translate(14 14)">
            <path id="Shape" d="M16.329,14.337l-3.994-3.394a1.781,1.781,0,0,0-1.21-.525,6.318,6.318,0,1,0-.707.707,1.781,1.781,0,0,0,.525,1.21l3.394,3.99a1.415,1.415,0,1,0,1.988-1.988ZM6.323,10.53a4.212,4.212,0,1,1,1.612-.32A4.211,4.211,0,0,1,6.323,10.53Z" fill="#fff"/>
          </g>
        </g>
      </g>
    </g>
  </g>
</svg>
