<svg xmlns="http://www.w3.org/2000/svg" xmlns:xlink="http://www.w3.org/1999/xlink" width="16.86" height="16.86" viewBox="0 0 16.86 16.86">
  <defs>
    <clipPath id="clip-path">
      <path id="パス_3" data-name="パス 3" d="M16.329-2.663,12.335-6.057a1.781,1.781,0,0,0-1.21-.525,6.318,6.318,0,0,0,1.5-4.475,6.318,6.318,0,0,0-2.02-4.266A6.318,6.318,0,0,0,6.193-17a6.318,6.318,0,0,0-4.342,1.849A6.318,6.318,0,0,0,0-10.807,6.318,6.318,0,0,0,1.677-6.395a6.319,6.319,0,0,0,4.266,2.02,6.318,6.318,0,0,0,4.475-1.5,1.781,1.781,0,0,0,.525,1.21l3.394,3.99a1.416,1.416,0,0,0,.457.376,1.416,1.416,0,0,0,.571.157,1.416,1.416,0,0,0,.585-.09,1.415,1.415,0,0,0,.5-.322,1.413,1.413,0,0,0,.322-.5,1.414,1.414,0,0,0,.09-.585,1.415,1.415,0,0,0-.157-.571,1.414,1.414,0,0,0-.376-.457ZM6.323-6.47a4.211,4.211,0,0,1-2.339-.71A4.211,4.211,0,0,1,2.433-9.07,4.211,4.211,0,0,1,2.194-11.5a4.211,4.211,0,0,1,1.153-2.156A4.211,4.211,0,0,1,5.5-14.811a4.211,4.211,0,0,1,2.433.24,4.211,4.211,0,0,1,1.89,1.551,4.211,4.211,0,0,1,.71,2.339,4.211,4.211,0,0,1-.321,1.612A4.212,4.212,0,0,1,9.3-7.7a4.21,4.21,0,0,1-1.366.913A4.211,4.211,0,0,1,6.323-6.47Z" fill="none"/>
    </clipPath>
    <clipPath id="clip-path-2">
      <path id="パス_2" data-name="パス 2" d="M-311,490H64V-511H-311Z" fill="none"/>
    </clipPath>
  </defs>
  <g id="search_icon_gray" transform="translate(0 17)">
    <g id="グループ_2" data-name="グループ 2" clip-path="url(#clip-path)">
      <g id="グループ_1" data-name="グループ 1" clip-path="url(#clip-path-2)">
        <path id="パス_1" data-name="パス 1" d="M-1-18H17.869V.869H-1Z" fill="#7d7a58"/>
      </g>
    </g>
  </g>
</svg>
