<svg id="comment_icon" xmlns="http://www.w3.org/2000/svg" xmlns:xlink="http://www.w3.org/1999/xlink" width="21.99" height="21.76" viewBox="0 0 21.99 21.76">
  <defs>
    <clipPath id="clip-path">
      <path id="Clip_2" data-name="Clip 2" d="M0,0H21.99V21.76H0Z" fill="none"/>
    </clipPath>
  </defs>
  <g id="Group_3" data-name="Group 3">
    <path id="Clip_2-2" data-name="Clip 2" d="M0,0H21.99V21.76H0Z" fill="none"/>
    <g id="Group_3-2" data-name="Group 3" clip-path="url(#clip-path)">
      <path id="Fill_1" data-name="Fill 1" d="M10.994,21.759A10.95,10.95,0,0,1,0,10.88a11,11,0,0,1,21.99,0A10.95,10.95,0,0,1,10.994,21.759Zm0-20.881a10.066,10.066,0,0,0-10.107,10,10.108,10.108,0,0,0,20.215,0A10.067,10.067,0,0,0,10.994.878Z" transform="translate(0)" fill="#404040"/>
    </g>
  </g>
  <path id="Fill_4" data-name="Fill 4" d="M5.289,12.8a.441.441,0,0,1-.444-.439v-1.91A5.3,5.3,0,0,1,1.407,8.786,5.186,5.186,0,0,1,0,5.234a5.29,5.29,0,0,1,10.58,0,5.154,5.154,0,0,1-.327,1.813C9.465,9.358,7.336,11.283,5.569,12.7A.446.446,0,0,1,5.289,12.8Zm0-11.921a4.384,4.384,0,0,0-4.4,4.356,4.384,4.384,0,0,0,4.4,4.356.442.442,0,0,1,.445.439v1.393a11.333,11.333,0,0,0,3.68-4.662l0-.007,0-.006a4.311,4.311,0,0,0,.274-1.514A4.385,4.385,0,0,0,5.289.878Z" transform="translate(5.705 4.704)" fill="#404040"/>
  <path id="Fill_6" data-name="Fill 6" d="M4.47,0H.444A.442.442,0,0,0,0,.439.442.442,0,0,0,.444.878H4.47A.441.441,0,0,0,4.914.439.442.442,0,0,0,4.47,0" transform="translate(8.538 8.548)" fill="#404040"/>
  <path id="Fill_8" data-name="Fill 8" d="M4.47,0H.444A.442.442,0,0,0,0,.439.442.442,0,0,0,.444.878H4.47A.441.441,0,0,0,4.914.439.442.442,0,0,0,4.47,0" transform="translate(8.538 10.45)" fill="#404040"/>
</svg>
